<?xml version="1.0" standalone="no"?>
<!DOCTYPE svg PUBLIC "-//W3C//DTD SVG 1.1//EN" "http://www.w3.org/Graphics/SVG/1.1/DTD/svg11.dtd" >
<svg xmlns="http://www.w3.org/2000/svg" xmlns:xlink="http://www.w3.org/1999/xlink" version="1.1">
<metadata></metadata>
<defs>
<font id="latin_modern_mono10_regular" horiz-adv-x="1075" >
<font-face units-per-em="2048" ascent="1593" descent="-455" />
<missing-glyph horiz-adv-x="500" />
<glyph horiz-adv-x="0" />
<glyph horiz-adv-x="682" />
<glyph unicode=" " />
<glyph unicode="!" d="M639 1157q0 -61 -4.5 -174t-5.5 -154l-8 -354q-3 -64 -16.5 -81t-67.5 -17q-15 0 -24.5 1t-25 5.5t-23.5 16t-9 30.5l-6 248l-15 479q0 38 13 64t32.5 36t33 13.5t24.5 3.5q8 0 17.5 -1.5t25.5 -8.5t28.5 -18.5t21.5 -34.5t9 -54zM639 102q0 -43 -29.5 -72.5t-72.5 -29.5 t-73 29.5t-30 72.5t30 73t73 30t72.5 -30t29.5 -73z" />
<glyph unicode="&#x22;" d="M809 1161l-27 -418q-4 -71 -63 -71q-38 0 -51 20.5t-15 52.5l-26 416q-4 60 25 86.5t67 26.5q13 0 27 -4.5t30 -15.5t25.5 -35t7.5 -58zM446 1161l-26 -418q-4 -71 -64 -71q-26 0 -41.5 13t-19 26.5t-4.5 33.5l-27 416q-4 60 25 86.5t67 26.5q13 0 27 -4.5t30 -15.5 t25.5 -35t7.5 -58z" />
<glyph unicode="#" d="M1001 406q0 -72 -96 -72h-155l-33 -250q-3 -16 -5 -24.5t-9.5 -25.5t-22.5 -25.5t-37 -8.5q-31 0 -51.5 21.5t-20.5 50.5q0 10 33 262h-211l-33 -250q-9 -55 -32 -72q-16 -12 -41 -12q-31 0 -51.5 21.5t-20.5 50.5q0 10 33 262h-80q-96 0 -96 72q0 71 96 71h100l37 299 h-137q-96 0 -96 72t96 72h158l30 247q7 84 74 84q30 0 53.5 -22.5t16.5 -73.5l-29 -235h211l31 247q7 84 73 84q30 0 53.5 -22.5t16.5 -73.5l-29 -235h78q96 0 96 -72t-96 -72h-98l-37 -299h135q96 0 96 -71zM662 776h-211l-37 -299h211z" />
<glyph unicode="$" d="M954 350q0 -56 -21 -111.5t-62 -106t-111 -88.5t-160 -52v-78q0 -14 -0.5 -22t-3.5 -21.5t-9 -21t-18.5 -13.5t-29.5 -6q-22 0 -36 7.5t-19.5 22.5t-7 26t-1.5 28v76q-115 11 -197 63t-120.5 126t-38.5 161q0 27 8 47t19 30t25 16t23 7.5t17 1.5q33 0 61.5 -26t28.5 -66 q0 -49 -33 -71q42 -140 207 -162v475q-71 13 -128 36t-93 49t-63 58t-40.5 58.5t-21 56t-9 45.5t-1.5 31q0 120 97 217.5t259 116.5v77q0 17 1.5 28t7 26t19.5 22.5t36 7.5q17 0 29.5 -6t18.5 -13.5t9 -21t3.5 -21.5t0.5 -22v-75q172 -14 263 -106.5t91 -219.5 q0 -52 -27 -76t-65 -24q-40 0 -65 26.5t-25 63.5q0 42 31 67q-39 123 -203 142v-426q85 -16 150.5 -49.5t103 -71.5t61 -84.5t31.5 -83t8 -70.5zM475 735v400q-96 -15 -160.5 -71.5t-64.5 -129.5q0 -75 66 -129t159 -70zM823 342q0 79 -61.5 141t-161.5 82v-446 q97 17 160 80.5t63 142.5z" />
<glyph unicode="%" d="M428 1147q0 -115 -51.5 -194t-126.5 -79q-74 0 -126 78t-52 197q0 115 51.5 193.5t126.5 78.5t126.5 -78t51.5 -196zM895 1350q0 -15 -12 -45l-561 -1416q-21 -59 -72 -59q-29 0 -50.5 21.5t-21.5 50.5q0 15 12 45l560 1411q8 19 13 29t21 22t39 12q30 0 51 -21.5 t21 -49.5zM1001 102q0 -115 -51 -193.5t-127 -78.5t-127 78.5t-51 193.5t51 194t127 79t127 -79t51 -194zM313 1149q0 60 -20.5 102.5t-42.5 42.5t-43 -43t-21 -102q0 -63 21.5 -105.5t42.5 -42.5t42 42.5t21 105.5zM887 102q0 62 -21.5 104t-42.5 42t-42 -42t-21 -104 t21 -103.5t42 -41.5t42.5 41.5t21.5 103.5z" />
<glyph unicode="&#x26;" d="M1004 819q0 -17 -6 -29.5t-13.5 -18.5t-20.5 -9t-21 -3.5t-21 -0.5h-64l-123 -320q-49 -125 -104 -217q14 -20 35.5 -43t62 -49.5t74.5 -26.5q29 0 52 27.5t28 89.5q0 10 2.5 22t16.5 27t38 15q2 0 6 -0.5t14 -4t17.5 -10t13.5 -20.5t6 -33q0 -53 -19.5 -105.5 t-65.5 -92.5t-109 -40q-118 0 -240 144q-116 -144 -254 -144q-75 0 -133.5 44t-88.5 112.5t-30 147.5q0 125 72 215q2 1 33 34.5t65.5 71t40.5 43.5q-57 171 -57 332q0 143 64 220t149 77q52 0 90 -25.5t58.5 -68.5t30 -89.5t9.5 -97.5q0 -22 -1 -37.5t-12 -55t-31 -77 t-61.5 -95t-100.5 -118.5q37 -101 151 -282q60 119 178 430q-18 0 -28.5 1t-25.5 6.5t-22.5 19.5t-7.5 36q0 28 15.5 43t30 17t36.5 2h189q17 0 27.5 -1.5t25 -7t22 -19.5t7.5 -36zM498 993q0 14 -2 33t-8.5 50.5t-23 52t-40.5 20.5q-38 0 -68 -44.5t-30 -127.5 q0 -123 32 -232q140 158 140 248zM489 221q-32 44 -90 148q-63 102 -82 147q-77 -85 -97.5 -122t-20.5 -107q0 -25 5 -53t16 -59.5t35 -52t56 -20.5q95 0 178 119z" />
<glyph unicode="'" d="M627 1157l-27 -409q-1 -18 -2.5 -27t-7.5 -22.5t-19 -20t-34 -6.5t-34.5 6.5t-19 20t-7.5 23t-3 26.5l-24 393l-5 41q0 38 27.5 65t65.5 27q41 0 67.5 -28.5t22.5 -88.5z" />
<glyph unicode="(" d="M895 -111q0 -19 -14.5 -38t-49.5 -19q-40 0 -137 79t-174 185q-68 96 -117 231t-49 300q0 107 23.5 208.5t61 178.5t84.5 145t95.5 115t92.5 81t75 50t45 16q35 0 49.5 -19t14.5 -38q0 -20 -8 -29.5t-32 -26.5q-4 -3 -7 -5q-98 -67 -170 -154t-110 -178.5t-55 -176 t-17 -167.5q0 -190 85 -371.5t263 -302.5q19 -13 24.5 -17t14 -12.5t10.5 -15.5t2 -19z" />
<glyph unicode=")" d="M721 627q0 -107 -23.5 -208.5t-61 -178.5t-84.5 -145t-95.5 -115.5t-92.5 -81.5t-75 -50t-45 -16q-33 0 -48.5 19.5t-15.5 37.5q0 21 10 33t37 29q99 67 171 154t110 178.5t55 176t17 167.5q0 50 -5.5 101.5t-27.5 132.5t-59 153.5t-108 154t-167 144.5q-33 20 -33 51 q0 18 15.5 37.5t48.5 19.5q40 0 137 -79t174 -185q68 -96 117 -231t49 -299z" />
<glyph unicode="*" d="M934 438q0 -25 -19.5 -46t-48.5 -21q-10 0 -15 1t-19 8t-41 23q-167 101 -193 115q6 -79 6 -248q0 -86 -67 -86q-68 0 -68 86q0 168 6 248l-254 -147q-23 0 -40 6.5t-24.5 14.5t-12 19.5t-5 16.5t-0.5 10q0 19 9 33t16.5 19.5t25.5 15.5l222 121l-224 121q-17 9 -25.5 15 t-16 19t-7.5 31q0 25 19.5 46.5t48.5 21.5q16 0 47 -19l221 -129q-6 79 -6 248q0 86 68 86q67 0 67 -86q0 -169 -6 -248l254 148q28 0 47 -9t25.5 -23t8 -21.5t1.5 -14.5q0 -18 -8.5 -32t-17 -20.5t-25.5 -15.5l-221 -120q17 -9 71.5 -37t101.5 -53.5t70 -40.5 q4 -2 9.5 -7.5t12.5 -19t7 -29.5z" />
<glyph unicode="+" d="M995 627q0 -72 -96 -72h-291v-293q0 -96 -71 -96q-72 0 -72 96v293h-291q-96 0 -96 72q0 71 96 71h291v293q0 96 72 96q71 0 71 -96v-293h291q96 0 96 -71z" />
<glyph unicode="," d="M709 51q0 -64 -22.5 -121t-55.5 -95t-71.5 -66t-71.5 -41t-54 -13q-26 0 -45.5 21t-19.5 45q0 19 11.5 32t20.5 16.5t25 8.5q120 39 152 168q-21 -6 -41 -6q-53 0 -90 36t-37 93q0 52 35 89.5t94 37.5q70 0 120 -57t50 -148z" />
<glyph unicode="-" d="M958 627q0 -72 -96 -72h-651q-96 0 -96 72q0 71 96 71h651q96 0 96 -71z" />
<glyph unicode="." d="M666 127q0 -50 -36.5 -88.5t-92.5 -38.5q-51 0 -89 37t-38 92q0 50 36.5 88.5t92.5 38.5q51 0 89 -37t38 -92z" />
<glyph unicode="/" d="M954 1350q0 -12 -16 -50l-676 -1413q-8 -18 -14.5 -28t-21.5 -19.5t-36 -9.5q-30 0 -50.5 21.5t-20.5 50.5q0 11 16 49l676 1413q8 18 14.5 28t21.5 19.5t36 9.5q30 0 50.5 -21.5t20.5 -49.5z" />
<glyph unicode="0" d="M971 625q0 -109 -23 -210t-64 -179.5t-95 -137.5t-119 -90t-133 -31q-84 0 -163 48.5t-139 133t-96.5 207t-36.5 261.5q0 181 61 331t160.5 233t213.5 83q84 0 162.5 -48.5t138.5 -132.5t96.5 -206.5t36.5 -261.5zM829 647q0 218 -87.5 360t-204.5 142 q-118 0 -205.5 -142t-87.5 -360q0 -149 39.5 -274.5t107 -198t146.5 -72.5q120 0 206 159.5t86 385.5z" />
<glyph unicode="1" d="M905 61q0 -17 -6 -29.5t-13.5 -18.5t-20.5 -9t-21 -3.5t-21 -0.5h-514q-13 0 -21 0.5t-21 3.5t-20.5 9t-13.5 18.5t-6 29.5q0 22 7.5 36t22 19.5t25 7t27.5 1.5h187v864q-104 -90 -213 -90q-68 0 -68 62q0 20 6.5 33.5t19.5 19t23.5 7.5t26.5 3q20 2 41.5 9.5t54 26.5 t66.5 61.5t61 103.5q6 15 11.5 24t18.5 17t31 8q17 0 29.5 -6t18.5 -13.5t9.5 -21t4 -22t0.5 -21.5v-1065h186q17 0 27.5 -1.5t25 -7t22 -19.5t7.5 -36z" />
<glyph unicode="2" d="M967 84q0 -50 -16 -67t-66 -17h-695q-18 0 -28 1t-25.5 6.5t-23 19.5t-7.5 36q0 20 7 30.5t24 25.5l453 381q113 94 174 184t61 190q0 86 -47 150t-119.5 94.5t-158.5 30.5q-85 0 -151 -43.5t-89 -114.5q29 -23 29 -65q0 -41 -27.5 -66.5t-62.5 -25.5q-34 0 -63.5 23.5 t-29.5 74.5q0 136 114.5 239t289.5 103q126 0 229 -48t165.5 -140t62.5 -212q0 -115 -59 -214.5t-165 -194.5q-50 -46 -206 -174.5t-199 -165.5h487q0 27 1.5 40t7.5 28.5t21.5 21.5t41.5 6q25 0 40.5 -7t21 -21.5t7 -25t1.5 -30.5v-53z" />
<glyph unicode="3" d="M983 356q0 -71 -32 -139t-88 -121.5t-140.5 -86t-181.5 -32.5q-193 0 -322 84t-129 218q0 47 27 71.5t65 24.5t64 -26.5t26 -63.5q0 -40 -24 -64q24 -44 82 -72.5t110 -37.5t101 -9q133 0 217 77t84 177q0 99 -82.5 177.5t-224.5 78.5h-95q-17 0 -27.5 1.5t-25 7 t-22 19.5t-7.5 36q0 40 24 50t112 16q8 1 12 1q65 4 105 15t85 47q40 33 63 82t23 96q0 70 -69 118t-172 48q-25 0 -55.5 -2t-87.5 -18t-85 -44q19 -19 19 -55q0 -41 -27.5 -66.5t-62.5 -25.5t-63.5 24.5t-28.5 71.5q0 108 104 174t285 66q171 0 278 -85t107 -204 q0 -86 -44 -166.5t-128 -134.5q104 -47 167.5 -134.5t63.5 -193.5z" />
<glyph unicode="4" d="M1014 408q0 -28 -15.5 -43t-30 -17t-36.5 -2h-160v-221h127q17 0 27.5 -1.5t25 -7t22 -19.5t7.5 -36q0 -17 -6 -29.5t-13.5 -18.5t-20.5 -9t-21 -3.5t-21 -0.5h-369q-13 0 -20.5 0.5t-21 3.5t-20.5 9t-13 18.5t-6 29.5q0 22 7.5 36t21.5 19.5t24.5 7t27.5 1.5h127v221 h-516q-48 0 -65 16t-17 66q0 31 3 41.5t16 30.5l467 733q20 30 34 36.5t52 6.5h57q52 0 68 -16.5t16 -67.5v-721h160q18 0 28 -1t24.5 -6.5t22 -19.5t7.5 -36zM657 471v715l-454 -715h454z" />
<glyph unicode="5" d="M967 389q0 -171 -134 -291.5t-325 -120.5q-170 0 -286 92.5t-116 221.5q0 53 30 75.5t63 22.5q35 0 62.5 -25t27.5 -67q0 -39 -27 -66q20 -40 53.5 -67.5t71 -40t66 -17t55.5 -4.5q131 0 224 82.5t93 204.5q0 69 -29 132.5t-90 107t-141 43.5q-172 0 -258 -103 q-10 -12 -15.5 -17t-16.5 -9t-29 -4q-23 0 -37.5 7t-20 22t-7 25.5t-1.5 29.5v544q0 50 16 67t66 17h551q17 0 27.5 -1t25 -6.5t22 -19.5t7.5 -36q0 -28 -15.5 -43t-30 -17t-36.5 -2h-491v-389q112 60 245 60q88 0 164 -34.5t127 -91.5t80 -130.5t29 -151.5z" />
<glyph unicode="6" d="M965 395q0 -119 -59.5 -216t-156 -149.5t-208.5 -52.5q-64 0 -123 19t-116.5 65.5t-99.5 117t-67.5 182t-25.5 251.5q0 150 47 277t124.5 210t175 129t201.5 46q71 0 126 -18.5t86 -49.5t46 -67.5t15 -75.5q0 -44 -26 -70t-66 -26q-39 0 -64.5 26.5t-25.5 63.5 q0 39 20 59q-33 33 -113 33q-143 0 -261.5 -125t-139.5 -332q130 119 305 119q169 0 287.5 -121t118.5 -295zM823 395q0 118 -76.5 203.5t-197.5 85.5q-117 0 -198 -67t-81 -162q0 -85 17 -127q33 -102 96.5 -164t157.5 -62q114 0 198 82.5t84 210.5z" />
<glyph unicode="7" d="M983 1188q0 -21 -6.5 -31t-38.5 -39q-48 -47 -95 -101t-113.5 -156t-115.5 -212.5t-85.5 -267.5t-39.5 -322q0 -41 -20 -61.5t-49 -20.5q-72 0 -72 97q0 76 9.5 160t38 198.5t73.5 225t123.5 235.5t179.5 233h-541q0 -28 -1 -40t-7 -28t-21.5 -22t-41.5 -6q-25 0 -40.5 7 t-21 21.5t-7 25t-1.5 30.5v86q0 20 1.5 30.5t7 25t21 21.5t40.5 7q53 0 65 -33h676q17 0 27.5 -1t25 -6.5t22 -19.5t7.5 -36z" />
<glyph unicode="8" d="M983 356q0 -153 -128.5 -266t-317.5 -113q-188 0 -317.5 113.5t-129.5 265.5q0 111 82 197.5t203 120.5q-121 40 -188.5 112t-67.5 160q0 129 119.5 228.5t298.5 99.5q178 0 297.5 -99t119.5 -229q0 -88 -67 -159.5t-189 -112.5q120 -34 202.5 -120.5t82.5 -197.5z M813 944q0 82 -79.5 143.5t-196.5 61.5q-118 0 -197.5 -61.5t-79.5 -143.5q0 -86 82 -146.5t195 -60.5q114 0 195 60t81 147zM842 358q0 99 -85 176.5t-220 77.5q-134 0 -220 -77.5t-86 -176.5q0 -106 89.5 -181t216.5 -75t216 75t89 181z" />
<glyph unicode="9" d="M965 639q0 -148 -43.5 -274t-116.5 -210t-167.5 -131t-195.5 -47q-75 0 -131.5 16t-87.5 39t-50 53.5t-24.5 54.5t-5.5 48q0 44 26.5 70.5t66.5 26.5q39 0 64.5 -26.5t25.5 -63.5q0 -34 -19 -58q46 -35 135 -35q146 0 254 132.5t123 324.5q-130 -119 -305 -119 q-169 0 -287 121t-118 295q0 120 61.5 217t160 149t212.5 52q62 0 119 -18t113.5 -64t97.5 -115.5t66.5 -182t25.5 -255.5zM805 797q0 105 -16 153.5t-68 110.5q-71 88 -178 88q-116 0 -204.5 -82.5t-88.5 -210.5q0 -118 76.5 -203.5t197.5 -85.5q122 0 201.5 70.5 t79.5 159.5z" />
<glyph unicode=":" d="M666 754q0 -50 -36.5 -88.5t-92.5 -38.5q-51 0 -89 37t-38 92q0 50 36.5 88.5t92.5 38.5q51 0 89 -37t38 -92zM666 127q0 -50 -36.5 -88.5t-92.5 -38.5q-51 0 -89 37t-38 92q0 50 36.5 88.5t92.5 38.5q51 0 89 -37t38 -92z" />
<glyph unicode=";" d="M666 754q0 -50 -36.5 -88.5t-92.5 -38.5q-51 0 -89 37t-38 92q0 50 36.5 88.5t92.5 38.5q51 0 89 -37t38 -92zM676 55q0 -65 -21 -123t-51.5 -96t-65 -66.5t-62 -41.5t-42.5 -13q-26 0 -45.5 21t-19.5 45q0 33 41 53q19 10 32 18.5t36 28t40.5 50t26.5 69.5 q-69 0 -102 39.5t-33 89.5q0 53 36 90t91 37q61 0 100 -52t39 -149z" />
<glyph unicode="&#x3c;" d="M958 186q0 -33 -22 -52t-49 -19q-21 0 -53 20l-682 428q-37 26 -37 64q0 18 9 32.5t15.5 19.5t20.5 15l674 424q34 21 53 21q27 0 49 -19.5t22 -52.5q0 -18 -8.5 -32.5t-17 -21.5t-23.5 -16l-587 -370l587 -371q15 -9 23.5 -16t17 -21.5t8.5 -32.5z" />
<glyph unicode="=" d="M995 782q0 -71 -92 -71h-733q-92 0 -92 71q0 72 104 72h709q104 0 104 -72zM995 471q0 -72 -104 -72h-709q-104 0 -104 72t92 72h733q92 0 92 -72z" />
<glyph unicode="&#x3e;" d="M958 627q0 -18 -8.5 -33t-15.5 -20.5t-21 -14.5l-673 -424q-32 -20 -54 -20q-27 0 -49 19t-22 52q0 18 8.5 32.5t17 21.5t23.5 16l588 371l-588 370q-15 9 -23.5 16t-17 21.5t-8.5 32.5q0 33 22 52.5t49 19.5q20 0 54 -21l682 -428q36 -25 36 -63z" />
<glyph unicode="?" d="M946 1010q0 -123 -135 -199q-68 -37 -114.5 -78.5t-69 -84t-31 -78.5t-8.5 -76v-35q0 -51 -17 -66.5t-65 -15.5q-57 0 -69.5 19.5t-12.5 86.5q0 25 0.5 41t6.5 50.5t16.5 60.5t32 64t52.5 70.5t79.5 70t109.5 71.5q25 13 40.5 23t29.5 30.5t14 45.5q0 53 -71.5 91 t-217.5 38q-163 0 -227 -72q20 -24 20 -57q0 -41 -27.5 -66.5t-62.5 -25.5q-36 0 -64 25t-28 71t21 88t64.5 79.5t122 60t181.5 22.5q108 0 190 -19.5t126 -47.5t71.5 -65.5t35 -65.5t7.5 -56zM608 102q0 -43 -29.5 -72.5t-72.5 -29.5t-73 29.5t-30 72.5t30 73t73 30 t72.5 -30t29.5 -73z" />
<glyph unicode="@" d="M983 164q0 -30 -49 -71t-135 -73t-172 -32q-106 0 -204.5 49t-172 132.5t-117 203.5t-43.5 254q0 135 44 254.5t117.5 203t170.5 131.5t201 48q58 0 107 -17t83.5 -43.5t62.5 -68t45.5 -80t30 -91t18.5 -90t9 -88t3.5 -73t0.5 -56.5q0 -101 -21.5 -181t-54 -127 t-74 -78.5t-78 -42.5t-69.5 -11q-118 0 -206.5 116.5t-88.5 293.5q0 172 86.5 289.5t210.5 117.5q70 0 131 -41q-55 146 -196 146q-79 0 -154.5 -38t-134 -104t-94 -163.5t-35.5 -208.5q0 -142 59 -260.5t155 -185t206 -66.5q123 0 219 88q14 14 23.5 17t37.5 3q78 0 78 -57 zM868 625q0 121 -55 202.5t-127 81.5q-69 0 -124.5 -80.5t-55.5 -203.5q0 -118 54.5 -200.5t127.5 -82.5q69 0 124.5 81.5t55.5 201.5z" />
<glyph unicode="A" d="M1018 61q0 -17 -6.5 -29.5t-14 -18.5t-22 -9t-22.5 -3.5t-23 -0.5h-209q-15 0 -23.5 0.5t-22.5 3.5t-21 9t-13 18t-6 30q0 19 5.5 31t13 18.5t24.5 10t31 4t41 0.5l-48 213h-331l-47 -213q27 0 40.5 -0.5t30.5 -4t24.5 -10t13 -18.5t5.5 -31q0 -18 -6 -30t-13 -18t-21 -9 t-22.5 -3.5t-23.5 -0.5h-209q-15 0 -23 0.5t-22.5 3.5t-22 9t-14 18.5t-6.5 29.5q0 42 35 60q12 4 88 4l248 1073q7 28 16 44.5t25.5 23.5t29 8.5t40.5 1.5t42 -1.5t29 -9t23.5 -24t15.5 -45.5l248 -1071q76 0 88 -6q35 -14 35 -58zM672 463l-135 643l-136 -643h271z" />
<glyph unicode="B" d="M987 342q0 -61 -23.5 -121t-66.5 -110t-112 -80.5t-152 -30.5h-504q-16 0 -26 1t-25 6t-23 19t-8 35q0 22 7.5 36t22.5 19.5t26 7t28 1.5h55v1001h-55q-17 0 -28 1.5t-26 7t-22.5 19.5t-7.5 36q0 21 8 35t23 19t25 6t26 1h463q82 0 150.5 -28.5t111.5 -74t66.5 -101.5 t23.5 -113q0 -94 -60.5 -169.5t-160.5 -109.5q121 -29 192.5 -116.5t71.5 -196.5zM803 932q0 22 -6 46t-21.5 51.5t-39 48t-63 34.5t-89.5 14h-256v-413h211q71 0 125 22t82.5 56.5t42.5 70.5t14 70zM846 346q0 37 -13 77t-39 78t-74 62.5t-110 24.5h-282v-463h260 q64 0 115 20t81 53t46 71t16 77z" />
<glyph unicode="C" d="M991 344q0 -143 -120 -255t-293 -112q-99 0 -189.5 49.5t-158 134.5t-108 207t-40.5 259q0 182 68 331.5t181 232.5t244 83q150 0 267 -98q12 23 18.5 36.5t8.5 19t3 7.5l4 5q3 5 4 6.5t5 5.5t6 5.5t7 4.5t9 4.5t10 2.5t13 1q17 0 29.5 -6t18.5 -13.5t9 -21t3.5 -21.5 t0.5 -22v-285q0 -21 -1 -31.5t-7 -25t-21.5 -21t-41.5 -6.5q-22 0 -36 5t-21 16.5t-9.5 20t-5.5 26.5q-21 121 -95 190.5t-169 69.5q-68 0 -133 -39t-115.5 -107t-81.5 -166.5t-31 -209.5q0 -224 109.5 -374.5t253.5 -150.5q36 0 75.5 11.5t82 37.5t72 78t34.5 123 q4 60 70 60q13 0 21.5 -1.5t22 -7t20.5 -20.5t7 -39z" />
<glyph unicode="D" d="M993 616q0 -165 -55 -305t-159 -225.5t-234 -85.5h-422q-17 0 -27 1t-25.5 6t-23.5 19t-8 35q0 22 7.5 36t22.5 19.5t26 7t28 1.5h45v1001h-45q-16 0 -27 1.5t-26 6.5t-23 19t-8 35q0 22 7.5 36t23 19.5t25.5 6.5t28 1h422q131 0 235.5 -91t158.5 -235t54 -309zM852 616 q0 92 -22 180.5t-63.5 163t-109.5 120.5t-151 46h-197v-1001h197q66 0 123 28t97 75.5t69 110.5t43 133.5t14 143.5z" />
<glyph unicode="E" d="M1028 84q0 -50 -16 -67t-66 -17h-809q-17 0 -27 1t-25.5 6t-23.5 19t-8 35q0 22 7.5 36t22.5 19.5t26 7t28 1.5h62v1001h-62q-16 0 -27 1.5t-26 7t-23 19.5t-8 36q0 21 8 35t23.5 19t25.5 6t27 1h764q51 0 66.5 -17.5t15.5 -66.5v-149q0 -21 -1.5 -31.5t-7.5 -25 t-21.5 -21t-41.5 -6.5q-25 0 -40 6.5t-21 21.5t-7 25.5t-1 30.5v108h-502v-415h268q0 32 0.5 45.5t4 31t11 23.5t21 11t35.5 5q25 0 40.5 -7t21 -21.5t7 -25t1.5 -30.5v-190q0 -20 -1.5 -30.5t-7 -25t-21 -21.5t-40.5 -7q-27 0 -41.5 5.5t-21.5 23t-8 33.5t-1 55h-268v-461 h547v141q0 21 1 31.5t7 25t21.5 21t41.5 6.5q25 0 40.5 -7t21 -21.5t7 -25t1.5 -30.5v-182z" />
<glyph unicode="F" d="M1004 1018q0 -21 -1.5 -31.5t-7.5 -25t-21.5 -21t-41.5 -6.5q-25 0 -40.5 7t-21 21.5t-7 25t-1.5 30.5v108h-512v-438h279q0 28 0.5 38.5t2 28.5t6 24t12 14t20 10t30.5 2q25 0 40.5 -7t21 -21.5t7 -25t1.5 -30.5v-191q0 -20 -1.5 -30.5t-7 -25t-21 -21.5t-40.5 -7 q-18 0 -30.5 2t-20 10t-12 14t-6 24t-2 28.5t-0.5 38.5h-279v-438h107q17 0 27.5 -1.5t25 -7t22 -19.5t7.5 -36q0 -17 -6 -29.5t-13.5 -18.5t-20.5 -9t-21 -3.5t-21 -0.5h-316q-17 0 -27 1t-25.5 6t-23.5 19t-8 35q0 22 7.5 36t22.5 19.5t26 7t28 1.5h68v1001h-68 q-16 0 -27 1.5t-26 6.5t-23 19t-8 35q0 22 7.5 36t23 19.5t25.5 6.5t28 1h781q51 0 66.5 -17.5t15.5 -66.5v-149z" />
<glyph unicode="G" d="M1016 492q0 -18 -6 -30.5t-13.5 -19t-22 -10t-25 -4t-29.5 -0.5v-344q0 -20 -1.5 -30.5t-7 -25t-21 -21.5t-40.5 -7q-26 0 -41.5 6t-21.5 21t-7.5 26t-1.5 33q-38 -43 -101 -76t-142 -33q-121 0 -225.5 82.5t-168 233t-63.5 334.5q0 181 63 330.5t167.5 233t226.5 83.5 q130 0 239 -92q26 58 40 75t44 17q17 0 29.5 -6t18.5 -13.5t9.5 -21t4 -22t0.5 -21.5v-285q0 -21 -1.5 -31.5t-7.5 -25t-21.5 -21t-41.5 -6.5q-37 0 -52 15t-18 45q-10 63 -31 112.5t-46 78t-54.5 46.5t-54.5 24.5t-49 6.5q-126 0 -225 -149t-99 -375q0 -220 97 -371.5 t225 -151.5q87 0 151 81.5t82 244.5h-86q-17 0 -27.5 1.5t-25 7t-22 19.5t-7.5 36q0 17 6 29.5t13.5 18.5t20.5 9t21 3.5t21 0.5h244q17 0 27 -1t25.5 -6t23.5 -19t8 -35z" />
<glyph unicode="H" d="M1028 61q0 -17 -6 -29.5t-13.5 -18.5t-20.5 -9t-21 -3.5t-21 -0.5h-244q-17 0 -27 1t-25 6.5t-22 19.5t-7 36t7.5 35.5t22 18.5t25 6.5t26.5 1.5h52v463h-435v-463h52q17 0 27.5 -1.5t25 -7t22 -19.5t7.5 -36q0 -17 -6 -29.5t-13.5 -18.5t-20.5 -9t-21 -3.5t-21 -0.5 h-244q-13 0 -21 0.5t-21 3.5t-20.5 9t-13.5 18.5t-6 29.5q0 22 7.5 36t22 19.5t25 7t27.5 1.5h51v1001h-51q-22 0 -36.5 2t-30 17t-15.5 43q0 22 7.5 36t22 19.5t25 6.5t27.5 1h244q17 0 27.5 -1t25 -6.5t22 -19.5t7.5 -36q0 -28 -15.5 -43t-30 -17t-36.5 -2h-52v-413h435 v413h-52q-17 0 -27.5 1.5t-24.5 7t-21.5 19.5t-7.5 36q0 17 6 29.5t13 18.5t20.5 9t21 3.5t20.5 0.5h244q18 0 28 -1t24.5 -6.5t22 -19.5t7.5 -36q0 -28 -15.5 -43t-30 -17t-36.5 -2h-51v-1001h51q17 0 27.5 -1.5t25 -7t22 -19.5t7.5 -36z" />
<glyph unicode="I" d="M913 61q0 -21 -8 -35t-23.5 -19t-25.5 -6t-27 -1h-583q-17 0 -27 1t-25.5 6.5t-23.5 19.5t-8 36q0 21 8 35t23 19t26 6.5t27 1.5h221v1001h-221q-16 0 -27 1.5t-26 7t-23 19.5t-8 36q0 21 8 35t23.5 19t25.5 6t27 1h583q17 0 27 -1t25.5 -6.5t23.5 -19.5t8 -36 q0 -21 -8 -35t-23 -19t-26 -6.5t-27 -1.5h-221v-1001h221q16 0 27 -1.5t26 -7t23 -19.5t8 -36z" />
<glyph unicode="J" d="M979 1190q0 -22 -7.5 -36t-22.5 -19.5t-26 -7t-28 -1.5h-61v-852q0 -134 -103 -215.5t-246 -81.5q-152 0 -246 64t-94 162q0 47 27.5 71.5t65.5 24.5t64 -26.5t26 -63.5q0 -32 -17 -53q60 -54 174 -54q17 0 37 2t52.5 13t56.5 29.5t42.5 55t18.5 85.5v839h-168 q-16 0 -27 1.5t-26 7t-23 19.5t-8 36q0 21 8 35t23.5 19t25.5 6t27 1h371q17 0 27 -1t25.5 -6t23.5 -19t8 -35z" />
<glyph unicode="K" d="M1014 61q0 -21 -8 -35t-23.5 -19t-25.5 -6t-27 -1h-154q-18 0 -28 1t-25.5 6.5t-23 19.5t-7.5 36q0 28 16 43t30.5 17t35.5 2l-287 512l-190 -240v-272h45q17 0 28 -1.5t26 -7t22.5 -19.5t7.5 -36q0 -21 -8 -35t-23.5 -19t-25.5 -6t-27 -1h-205q-18 0 -28 1t-25.5 6.5 t-23 19.5t-7.5 36q0 21 8 35t23 19t26 6.5t27 1.5h45v1001h-45q-17 0 -28 1.5t-26 7t-22.5 19.5t-7.5 36q0 21 8 35t23.5 19t25.5 6t27 1h205q18 0 28 -1t25.5 -6.5t23 -19.5t7.5 -36q0 -21 -8 -35t-23 -19t-26 -6.5t-27 -1.5h-45v-544l432 544q-22 0 -36.5 2t-31 17 t-16.5 43q0 22 8 36t23.5 19.5t25.5 6.5t27 1h180q13 0 20.5 -0.5t21 -3.5t21.5 -9t14.5 -18.5t6.5 -29.5q0 -19 -5.5 -31t-13.5 -18.5t-25 -10t-31 -4t-41 -0.5l-312 -393l328 -583q1 -2 6.5 -11.5t7.5 -13.5q28 0 42.5 -1.5t32 -7t25 -19t7.5 -36.5z" />
<glyph unicode="L" d="M999 84q0 -50 -15.5 -67t-65.5 -17h-771q-13 0 -20.5 0.5t-21 3.5t-20.5 9t-13 18.5t-6 29.5q0 22 7.5 36t21.5 19.5t24.5 7t27.5 1.5h76v1001h-76q-16 0 -26.5 1.5t-25 6.5t-22 18.5t-7.5 35.5t7 36t22 19.5t25 6.5t27 1h332q17 0 27 -1t25.5 -6.5t23.5 -19.5t8 -36 q0 -28 -16.5 -43t-31 -17t-36.5 -2h-114v-1001h493v141q0 21 1.5 32t7.5 25.5t21.5 20.5t41.5 6q25 0 40 -6.5t21 -21t7 -25t1 -31.5v-182z" />
<glyph unicode="M" d="M1038 61q0 -17 -6 -29.5t-13.5 -18.5t-20.5 -9t-21 -3.5t-21 -0.5h-168q-13 0 -20.5 0.5t-21 3.5t-20.5 9t-13 18.5t-6 29.5q0 18 5.5 30.5t13 19t23.5 10t28.5 4t37.5 0.5v977h-2q-11 -49 -61 -206t-95 -291.5t-49 -141.5q-25 -45 -71 -45q-39 0 -62 31q-11 15 -53 139 q-1 5 -38 118t-75.5 233.5t-48.5 162.5h-2v-977q25 0 37.5 -0.5t29 -4t24 -10t13 -19t5.5 -30.5q0 -17 -6 -29.5t-13.5 -18.5t-20.5 -9t-21 -3.5t-21 -0.5h-168q-13 0 -21 0.5t-21 3.5t-20.5 9t-13.5 18.5t-6 29.5q0 18 5.5 30.5t13 19t23.5 10t28.5 4t37.5 0.5v1001 q-25 0 -37.5 0.5t-28.5 4t-23.5 10t-13 19t-5.5 30.5q0 17 6 29.5t13.5 18.5t20.5 9t21 3.5t21 0.5h114q81 0 101 -49q192 -575 205 -639h2q15 76 55 193l137 413q11 33 18.5 46.5t30 24.5t62.5 11h114q13 0 21 -0.5t21 -3.5t20.5 -9t13.5 -18.5t6 -29.5q0 -18 -5.5 -30.5 t-13 -19t-23.5 -10t-28.5 -4t-37.5 -0.5v-1001q25 0 37.5 -0.5t28.5 -4t23.5 -10t13 -19t5.5 -30.5z" />
<glyph unicode="N" d="M1016 1188q0 -28 -15.5 -43t-30 -17t-36.5 -2h-51v-1042q0 -55 -18 -69.5t-68 -14.5q-24 0 -37 1.5t-28.5 8.5t-26.5 22.5t-21 41.5l-377 1024h-2v-973h51q17 0 27.5 -1.5t25 -7t22 -19.5t7.5 -36q0 -17 -6 -29.5t-13.5 -18.5t-20.5 -9t-21 -3.5t-21 -0.5h-217 q-17 0 -27.5 1t-25 6.5t-22 19.5t-7.5 36q0 28 15.5 43t30 17t36.5 2h51v1001h-51q-17 0 -27.5 1.5t-25 7t-22 19.5t-7.5 36q0 17 6 29.5t13.5 18.5t20.5 9t21 3.5t21 0.5h140q47 0 70 -13t40 -60l377 -1024h2v972h-51q-22 0 -36.5 2t-30 17t-15.5 43q0 22 7.5 36t22 19.5 t25 6.5t27.5 1h217q18 0 28 -1t24.5 -6.5t22 -19.5t7.5 -36z" />
<glyph unicode="O" d="M958 625q0 -119 -2 -198.5t-11 -152t-20.5 -115t-36 -79.5t-52 -54.5t-75 -30t-97.5 -15.5t-127 -3q-61 0 -104 2t-85 9t-69.5 16.5t-53.5 30t-41 44t-29 63t-20.5 82t-11.5 107t-6.5 132t-1.5 162.5q0 120 2 199t11 152t20 116t36 80t52.5 54t75.5 29.5t98 15.5t127 3 t127 -3t98 -16t75 -30t52 -54t36 -79.5t20 -116t11 -152.5t2 -198zM817 643q0 283 -24 375q-22 81 -77.5 106t-178.5 25q-130 0 -184 -28.5t-74 -116.5q-23 -94 -23 -361q0 -291 25 -395q13 -54 38 -84t77 -46t141 -16q133 0 186.5 34.5t71.5 123.5q22 106 22 383z" />
<glyph unicode="P" d="M983 877q0 -150 -108 -262.5t-279 -112.5h-256v-377h61q16 0 27 -1.5t26 -7t23 -19.5t8 -36q0 -21 -8 -35t-23.5 -19t-25.5 -6t-27 -1h-264q-17 0 -27 1t-25.5 6t-23.5 19t-8 35q0 22 7.5 36t22.5 19.5t26 7t28 1.5h62v1001h-62q-16 0 -27 1.5t-26 7t-23 19.5t-8 36 q0 21 8 35t23.5 19t25.5 6t27 1h459q170 0 278.5 -112.5t108.5 -261.5zM842 877q0 43 -17.5 85.5t-50.5 79.5t-90 60.5t-127 23.5h-217v-499h217q70 0 127 23.5t90 61t50.5 80t17.5 85.5z" />
<glyph unicode="Q" d="M958 625q0 -231 -12 -342q-14 -125 -46 -186t-99 -89q41 -79 67 -123q64 -125 64 -131q0 -14 -5.5 -22.5t-17 -12t-19.5 -4t-24 -0.5h-18q-30 0 -45.5 4t-26.5 21l-125 240q-35 -3 -114 -3q-61 0 -104 2t-85 9t-69.5 16.5t-53.5 30t-41 44t-29 63t-20.5 82t-11.5 107 t-6.5 132t-1.5 162.5q0 120 2 199t11 152t20 116t36 80t52.5 54t75.5 29.5t98 15.5t127 3t127 -3t98 -16t75 -30t52 -54t36 -79.5t20 -116t11 -152.5t2 -198zM817 627q0 250 -18 354q-17 99 -71 133.5t-191 34.5q-94 0 -146 -16t-76.5 -47t-38.5 -91q-20 -98 -20 -370 q0 -251 18 -355q11 -60 32 -94t72.5 -54t141.5 -20h66l-94 183q-9 15 -9 26q0 14 5.5 22.5t17.5 12t20 4t23 0.5h22q31 0 39.5 -5t22.5 -28l98 -178q18 12 27 21.5t22.5 40.5t20 78.5t11.5 135.5t5 212z" />
<glyph unicode="R" d="M1069 190q0 -32 -10 -67t-30 -68.5t-56 -55.5t-82 -22q-107 0 -162 95q-27 46 -33 95.5t-6 164.5q0 53 -1.5 76.5t-11.5 50t-32 47.5q-30 26 -65 39.5t-54 15.5t-47 2h-160v-438h52q17 0 27.5 -1.5t25 -7t22 -19.5t7.5 -36q0 -17 -6 -29.5t-13.5 -18.5t-20.5 -9t-21 -3.5 t-21 -0.5h-244q-13 0 -21 0.5t-21 3.5t-20.5 9t-13.5 18.5t-6 29.5q0 22 7.5 36t22 19.5t25 7t27.5 1.5h51v1001h-51q-22 0 -36.5 2t-30 17t-15.5 43q0 22 7.5 36t22 19.5t25 6.5t27.5 1h362q175 0 286.5 -103t111.5 -241q0 -75 -41 -153.5t-133 -130.5q71 -56 100 -125 q13 -34 15.5 -63t2.5 -130q0 -52 1 -79.5t6.5 -61t18 -48t32.5 -14.5q22 0 30.5 33t8.5 60q2 61 69 61q13 0 21.5 -1.5t22 -6.5t21 -20t7.5 -38zM745 907q0 83 -73.5 151t-204.5 68h-148v-438h148q130 0 204 67.5t74 151.5z" />
<glyph unicode="S" d="M967 340q0 -69 -27 -134t-75.5 -116t-122.5 -82t-160 -31q-210 0 -338 95q-15 -54 -29.5 -74.5t-46.5 -20.5q-17 0 -29.5 6t-18.5 13.5t-9.5 21t-4 22t-0.5 21.5v271q0 21 1.5 31.5t7.5 25t21.5 21t41.5 6.5q24 0 38.5 -5.5t21 -18t8 -21.5t2.5 -27q7 -121 96 -178 q95 -64 240 -64q114 0 182 70.5t68 157.5q0 183 -228 231l-235 55q-124 36 -194.5 125.5t-70.5 196.5q0 135 108 235.5t273 100.5q175 0 287 -96q14 53 28 74.5t48 21.5q17 0 29.5 -6t18.5 -13.5t9 -21t3.5 -21.5t0.5 -22v-270q0 -21 -1 -31.5t-7 -25t-21.5 -21t-41.5 -6.5 q-32 0 -49 12.5t-21 44.5q-5 24 -7 35t-12.5 42.5t-21.5 50.5t-34 46.5t-50 43t-68.5 27t-91.5 11.5q-105 0 -175 -61t-70 -142q0 -69 47 -120.5t116 -71.5l166 -37q132 -31 186 -53t113 -80q99 -107 99 -244z" />
<glyph unicode="T" d="M1020 1018q0 -21 -1.5 -31.5t-7.5 -25t-21.5 -21t-41.5 -6.5q-25 0 -40 6.5t-21 21.5t-7 25.5t-1 30.5v108h-271v-1001h107q17 0 27.5 -1.5t25 -7t22 -19.5t7.5 -36q0 -17 -6 -29.5t-13.5 -18.5t-20.5 -9t-21 -3.5t-21 -0.5h-355q-17 0 -27 1t-25 6.5t-22 19.5t-7 36 t7.5 35.5t22 18.5t25 6.5t26.5 1.5h107v1001h-272v-108q0 -21 -1.5 -31.5t-7.5 -25t-21.5 -21t-41.5 -6.5q-25 0 -40.5 7t-21 21.5t-7 25t-1.5 30.5v149q0 51 16.5 67.5t67.5 16.5h801q51 0 66.5 -17.5t15.5 -66.5v-149z" />
<glyph unicode="U" d="M1065 1190q0 -22 -7.5 -36t-22.5 -19.5t-26 -7t-28 -1.5h-61v-708q0 -186 -113.5 -313.5t-269.5 -127.5t-269.5 127.5t-113.5 313.5v708h-62q-16 0 -27 1.5t-26 7t-23 19.5t-8 36q0 21 8 35t23.5 19t25.5 6t27 1h264q17 0 27 -1t25.5 -6t23.5 -19t8 -35q0 -22 -8 -36 t-23 -19.5t-26 -7t-27 -1.5h-61v-698q0 -79 22.5 -143t58 -103t77.5 -59.5t84 -20.5q41 0 82.5 21t77.5 59.5t58.5 103t22.5 142.5v698h-61q-16 0 -27 1.5t-26 7t-23 19.5t-8 36q0 21 8 35t23.5 19t25.5 6t27 1h264q17 0 27 -1t25.5 -6t23.5 -19t8 -35z" />
<glyph unicode="V" d="M1036 1190q0 -19 -5.5 -31t-13.5 -18.5t-25 -10t-31 -4t-41 -0.5l-271 -1067q-7 -27 -16.5 -43.5t-27 -23t-29.5 -7.5t-39 -1q-23 0 -33 0.5t-26 4t-23.5 11.5t-16 23t-14.5 38l-270 1065q-34 0 -50.5 1t-34.5 7t-25 19.5t-7 36.5q0 21 8 35t23.5 19t25.5 6t27 1h209 q17 0 27 -1t25.5 -6t23.5 -19t8 -35q0 -23 -7 -36.5t-25 -19t-34 -7t-49 -1.5l199 -796q28 -118 37 -183h2q15 95 79 353l158 626q-33 0 -49 1.5t-34 7t-25 19t-7 36.5q0 21 8 35t23.5 19t25.5 6t27 1h209q17 0 27 -1t25.5 -6t23.5 -19t8 -35z" />
<glyph unicode="W" d="M1051 1188q0 -62 -78 -62l-148 -1071q-4 -25 -13 -41t-24 -21.5t-23.5 -7t-23.5 -1.5q-68 0 -82 51q-2 3 -29.5 123t-57 260.5t-33.5 181.5h-2q-5 -54 -62 -307t-63 -268q-20 -41 -80 -41q-15 0 -23.5 1.5t-23.5 7t-24 21.5t-13 41l-148 1071h-2q-75 0 -75 62 q0 18 6 30.5t13.5 19t21 9.5t21.5 3.5t21 0.5h162q18 0 28 -1t24.5 -6.5t22 -19.5t7.5 -36q0 -28 -15.5 -43t-30 -17t-36.5 -2h-51l107 -811q16 -127 16 -159h2q5 57 32 192t52 242.5t29 116.5q20 45 82 45q66 0 84 -47q0 -1 16 -72.5t35 -157.5t37 -180t22 -139h2 q1 42 33 288l90 682h-51q-22 0 -36.5 2t-30 17t-15.5 43q0 22 7.5 36t22 19.5t25 6.5t27.5 1h162q17 0 27 -1t25.5 -6.5t23.5 -19.5t8 -36z" />
<glyph unicode="X" d="M1016 61q0 -21 -8 -35t-23.5 -19t-25.5 -6t-27 -1h-213q-13 0 -21 0.5t-21 3.5t-20.5 9t-13.5 18.5t-6 29.5q0 23 7 36.5t22.5 19t27.5 7t35 1.5l-203 397l-188 -397q23 0 35.5 -1.5t29 -7t24 -19.5t7.5 -36q0 -21 -8 -35t-23.5 -19t-25.5 -6t-27 -1h-213q-13 0 -21 0.5 t-21 3.5t-20.5 9t-13.5 18.5t-6 29.5q0 22 7.5 36t22 19.5t25 7t27.5 1.5h45l273 541l-246 460h-47q-16 0 -27 1.5t-26 7t-23 19.5t-8 36q0 21 8 35t23.5 19t25.5 6t27 1h213q13 0 21 -0.5t21 -3.5t20.5 -9t13.5 -18.5t6 -29.5q0 -22 -7 -36t-22.5 -19.5t-27 -7t-31.5 -1.5 l157 -299l146 299q-18 0 -28 0.5t-24.5 4t-22.5 10t-13.5 19t-5.5 30.5q0 17 6 29.5t13 18.5t20.5 9t21 3.5t20.5 0.5h213q17 0 27 -1t25.5 -6.5t23.5 -19.5t8 -36q0 -21 -8 -35t-23 -19t-26 -6.5t-27 -1.5h-45l-231 -458l289 -543h47q16 0 27 -1.5t26 -7t23 -19.5t8 -36z " />
<glyph unicode="Y" d="M1034 1188q0 -28 -15.5 -43t-30 -17t-36.5 -2h-43l-301 -626v-375h51q17 0 27.5 -1.5t25 -7t22 -19.5t7.5 -36q0 -17 -6 -29.5t-13.5 -18.5t-20.5 -9t-21 -3.5t-21 -0.5h-243q-18 0 -28 1t-24.5 6.5t-22 19.5t-7.5 36q0 28 15.5 43t30 17t36.5 2h51v375l-303 626h-43 q-17 0 -27.5 1.5t-25 7t-22 19.5t-7.5 36q0 17 6 29.5t13.5 18.5t20.5 9t21 3.5t21 0.5h213q13 0 21 -0.5t21 -3.5t20.5 -9t13.5 -18.5t6 -29.5q0 -23 -7 -36.5t-22.5 -19t-28 -7t-36.5 -1.5q0 -1 36.5 -77t68.5 -143.5t66 -147t44 -115.5l215 483q-19 0 -29.5 0.5t-25 4 t-22 10t-13 19t-5.5 30.5q0 17 6 29.5t13.5 18.5t20.5 9t21 3.5t21 0.5h213q18 0 28 -1t24.5 -6.5t22 -19.5t7.5 -36z" />
<glyph unicode="Z" d="M985 84q0 -50 -16 -67t-66 -17h-721q-20 0 -30.5 1.5t-25 7t-21.5 21t-7 40.5q0 30 21 63l674 993h-529v-108q0 -21 -1 -31.5t-7 -25t-21.5 -21t-41.5 -6.5q-25 0 -40.5 7t-21 21.5t-7 25t-1.5 30.5v149q0 51 16.5 67.5t67.5 16.5h684q20 0 30.5 -1t25.5 -7t21.5 -21 t6.5 -40q0 -31 -21 -64l-673 -993h563v147q0 21 1 31.5t7 25t21.5 21t41.5 6.5q25 0 40.5 -7t21 -21.5t7 -25t1.5 -30.5v-188z" />
<glyph unicode="[" d="M989 -109q0 -17 -6 -29.5t-13.5 -18.5t-20.5 -9t-21 -3.5t-21 -0.5h-370q-51 0 -66.5 17.5t-15.5 66.5v1423q0 50 16 67t66 17h370q17 0 27.5 -1t25 -6.5t22 -19.5t7.5 -36q0 -28 -15.5 -43t-30 -17t-36.5 -2h-311v-1341h311q17 0 27.5 -1.5t25 -7t22 -19.5t7.5 -36z" />
<glyph unicode="\" d="M954 -98q0 -29 -20.5 -50.5t-50.5 -21.5q-45 0 -72 55l-678 1415q-14 28 -14 50q0 28 20.5 49.5t50.5 21.5q21 0 37 -11t21.5 -20t13.5 -24l678 -1415q14 -28 14 -49z" />
<glyph unicode="]" d="M618 -86q0 -50 -15.5 -67t-65.5 -17h-371q-17 0 -27.5 1.5t-25 7t-22 19.5t-7.5 36q0 17 6 29.5t13.5 18.5t20.5 9t21 3.5t21 0.5h311v1341h-311q-17 0 -27.5 1.5t-25 7t-22 19.5t-7.5 36q0 17 6 29.5t13.5 18.5t20.5 9t21 3.5t21 0.5h371q51 0 66 -17.5t15 -66.5v-1423z " />
<glyph unicode="^" d="M895 1112q34 -17 35.5 -50.5t-24.5 -54.5t-60 -6l-309 134l-310 -134q-20 -8 -38.5 -4t-29 19.5t-14 32.5t5 35t29.5 28l334 162q24 10 47 0z" />
<glyph unicode="_" d="M958 -270q0 -72 -96 -72h-651q-96 0 -96 72q0 71 96 71h651q96 0 96 -71z" />
<glyph unicode="`" d="M754 1081q0 -22 -17 -52t-51 -30q-15 0 -37 11l-272 120q-58 27 -58 72q0 31 20.5 51.5t51.5 20.5q16 0 39 -10l272 -123q18 -7 27 -12.5t17 -18t8 -29.5z" />
<glyph unicode="a" d="M1073 63q0 -18 -6 -30.5t-13 -19t-23 -9.5t-27 -3.5t-33 -0.5q-37 0 -62.5 1.5t-59 7.5t-58.5 20.5t-41 36.5q-119 -78 -299 -78q-151 0 -244.5 81.5t-93.5 192.5q0 96 79 164.5t215 103t320 37.5q0 105 -70 157t-192 52q-45 0 -74 -2q-30 -3 -36.5 -6.5t-6.5 -15.5 q-1 -51 -30 -73t-60 -22q-39 0 -65.5 25.5t-26.5 69.5q0 31 12.5 55.5t30 40t47.5 26.5t52.5 16t58 7.5t52 3t44.5 0.5q106 0 187 -28.5t127 -76t68.5 -101.5t22.5 -111v-443q43 -16 123 -16q22 0 36.5 -2t30 -17t15.5 -43zM727 274v172q-219 -6 -346 -57t-127 -127 q0 -62 59 -105.5t152 -43.5q110 0 182 34q29 13 46 27.5t24 33t8.5 31t1.5 35.5z" />
<glyph unicode="b" d="M999 442q0 -95 -34.5 -180t-92 -144.5t-134.5 -94.5t-160 -35q-136 0 -238 104q0 -25 -1.5 -37t-7.5 -27.5t-21 -21.5t-40 -6q-26 0 -41.5 6.5t-21.5 21t-7 25t-1 31.5v1042h-93q-15 0 -25.5 1.5t-25 6.5t-22.5 19t-8 35q0 22 7.5 36t23 19.5t25.5 6.5t28 1h149 q51 0 66.5 -17.5t15.5 -66.5v-372q111 100 260 100q107 0 199 -60t146 -164.5t54 -228.5zM858 442q0 135 -78.5 231.5t-191.5 96.5q-97 0 -172.5 -69.5t-75.5 -159.5v-150q0 -39 14 -85t41 -90.5t73 -73.5t103 -29q112 0 199.5 93.5t87.5 235.5z" />
<glyph unicode="c" d="M954 223q0 -13 -9 -38t-34 -60t-62.5 -64.5t-103 -51t-145.5 -21.5q-191 0 -320.5 133.5t-129.5 320.5q0 57 15 117t51.5 122t89 110.5t135.5 79t184 30.5q30 0 47 -0.5t53 -3t59.5 -7.5t54 -16t48 -26.5t30.5 -40t13 -55.5q0 -43 -27 -69t-65 -26q-39 0 -64 25t-26 76 q0 18 -123 18q-78 0 -140 -25.5t-97 -63.5t-58 -85.5t-31 -86.5t-8 -73q0 -138 94.5 -233.5t226.5 -95.5q43 0 78.5 11t55 24t36.5 34t21.5 30t11.5 24q10 28 25 36.5t43 8.5q71 0 71 -58z" />
<glyph unicode="d" d="M1049 63q0 -22 -7.5 -36t-23 -19.5t-25.5 -6.5t-28 -1h-150q-57 0 -69.5 20t-12.5 82q-110 -114 -258 -114q-164 0 -282.5 131.5t-118.5 320.5q0 127 58.5 232t154.5 164t207 59q133 0 239 -92v323h-92q-21 0 -35.5 2t-30.5 17t-16 43q0 22 7.5 36t23 19.5t25.5 6.5t28 1 h150q51 0 66 -17.5t15 -66.5v-1042h93q21 0 35.5 -2t30.5 -17t16 -43zM733 397v146q0 87 -67.5 157t-163.5 70q-112 0 -199.5 -94t-87.5 -236q0 -136 79.5 -231.5t188.5 -95.5q56 0 105 28t79.5 71t48 92t17.5 93z" />
<glyph unicode="e" d="M950 223q0 -17 -11.5 -44t-40 -60.5t-68.5 -62.5t-105 -48.5t-141 -19.5q-197 0 -334 134t-137 322q0 189 128.5 323t311.5 134q97 0 174 -35t125 -95t73 -137.5t25 -166.5q0 -27 -6 -43.5t-20 -23t-24.5 -8t-31.5 -1.5h-610q24 -127 121.5 -202.5t218.5 -75.5 q25 0 51.5 5t58.5 17t59.5 38t43.5 63q10 28 24.5 36.5t43.5 8.5q71 0 71 -58zM805 514q-6 75 -31 129t-62.5 81.5t-76 39.5t-82.5 12q-107 0 -189 -74.5t-104 -187.5h545z" />
<glyph unicode="f" d="M895 1141q0 -40 -27.5 -65t-60.5 -25q-32 0 -54.5 21.5t-29 40t-6.5 26.5q-19 0 -30.5 -0.5t-35 -3.5t-39 -8.5t-35 -17.5t-31 -28.5t-20 -42.5t-8.5 -59v-96h250q17 0 27.5 -1.5t25 -7t22 -19.5t7.5 -36q0 -17 -6 -29.5t-13.5 -18.5t-20.5 -9t-21 -3.5t-21 -0.5h-250 v-633h207q16 0 27 -1.5t26 -7t23 -19.5t8 -36q0 -21 -8 -35t-23.5 -19t-25.5 -6t-27 -1h-555q-17 0 -27 1t-25.5 6.5t-23.5 19.5t-8 36q0 21 8 35t23 19t26 6.5t27 1.5h207v633h-207q-13 0 -21 0.5t-21 3.5t-20.5 9t-13.5 18.5t-6 29.5q0 22 7.5 36t22.5 19.5t26 7t28 1.5 h205v108q0 127 95 200t226 73q18 0 34 -1t49 -7.5t55.5 -18t40.5 -36.5t18 -60z" />
<glyph unicode="g" d="M1042 795q0 -41 -25.5 -62.5t-55.5 -21.5q-22 0 -47 16.5t-33 52.5q-67 -5 -119 -35q53 -86 53 -178q0 -137 -98.5 -233t-239.5 -96q-45 0 -91 13t-65 22.5t-28 15.5q-12 -30 -12 -58q1 -44 24 -73q17 -20 29.5 -24.5t38.5 -4.5q16 -4 59 -4h143q183 0 297 -59 q72 -38 107 -103.5t35 -130.5q0 -85 -64.5 -154.5t-173.5 -108t-239 -38.5t-239.5 38t-174 107.5t-64.5 155.5q0 14 1 27t9 45t22.5 60t45.5 62t74 60q-47 65 -47 147q0 81 41 140q-66 83 -66 194q0 133 98 230.5t240 97.5q111 0 199 -61q95 71 217 71q76 0 112.5 -34 t36.5 -76zM674 567q0 83 -57.5 144t-139.5 61q-80 0 -138 -60t-58 -147q0 -83 57 -144t139 -61q80 0 138.5 60t58.5 147zM895 -168q0 37 -14.5 65.5t-34.5 46.5t-57.5 31t-67 19.5t-80 9.5t-79 3.5t-81.5 0.5q-117 0 -149.5 -4.5t-69.5 -28.5q-45 -28 -64.5 -68t-19.5 -75 q0 -70 104.5 -124t254.5 -54t254 54t104 124z" />
<glyph unicode="h" d="M1049 61q0 -21 -8 -35t-23 -19t-25 -6t-26 -1h-314q-13 0 -20.5 0.5t-21 3.5t-21.5 9t-14.5 18.5t-6.5 29.5q0 22 7.5 36t22.5 19.5t26 7t28 1.5h80v465q0 96 -29 138t-108 42q-42 0 -84.5 -16t-82 -48t-64.5 -89t-25 -130v-362h90q17 0 28 -1.5t26 -7t22.5 -19.5 t7.5 -36q0 -21 -8 -35t-23 -19t-25 -6t-26 -1h-326q-13 0 -20 0.5t-20.5 3.5t-21 9t-13.5 18.5t-6 29.5q0 22 7.5 36t22.5 19.5t26 7t28 1.5h90v1001h-93q-15 0 -25.5 1.5t-25 6.5t-22.5 19t-8 35q0 22 7.5 36t23 19.5t25.5 6.5t28 1h149q51 0 66.5 -17.5t15.5 -66.5v-381 q41 41 109 75t159 34q126 0 196 -72.5t70 -222.5v-475h91q17 0 28 -1.5t26 -7t22.5 -19.5t7.5 -36z" />
<glyph unicode="i" d="M932 61q0 -21 -8 -35t-23.5 -19t-25.5 -6t-27 -1h-604q-17 0 -27 1t-25.5 6t-23.5 19t-8 35q0 22 7.5 36t22.5 19.5t26 7t28 1.5h248v633h-232q-17 0 -27 1t-25.5 6.5t-23.5 19.5t-8 36q0 21 8 35t23 19t26 6.5t27 1.5h291q51 0 66.5 -17.5t15.5 -66.5v-674h215 q16 0 27 -1.5t26 -7t23 -19.5t8 -36zM641 1137q0 -43 -29.5 -73t-72.5 -30t-73 30t-30 73t30 72.5t73 29.5t72.5 -29.5t29.5 -72.5z" />
<glyph unicode="j" d="M754 -90q0 -43 -9.5 -89.5t-36 -99.5t-66 -93.5t-107 -67.5t-152.5 -27q-31 0 -51 1t-59 4.5t-65 14t-53.5 26.5t-42 44.5t-14.5 65.5q0 42 27.5 68t64.5 26q35 0 63 -25.5t28 -66.5q0 -19 -2 -25q62 -8 114 -8q33 0 53.5 2.5t54 21t58.5 54.5q53 72 53 184v838h-266 q-13 0 -21 0.5t-21 3.5t-20.5 9t-13.5 18.5t-6 29.5q0 22 7.5 36t22.5 19.5t26 7t28 1.5h324q51 0 66.5 -17.5t15.5 -66.5v-889zM756 1137q0 -43 -30 -73t-73 -30t-72.5 30t-29.5 73t29.5 72.5t72.5 29.5t73 -29.5t30 -72.5z" />
<glyph unicode="k" d="M1040 61q0 -21 -8 -35t-23.5 -19t-25.5 -6t-27 -1h-241q-13 0 -21 0.5t-21 3.5t-20.5 9t-13.5 18.5t-6 29.5q0 19 5.5 31t13 18.5t24.5 10t31 4t41 0.5l-244 317l-164 -151v-166h100q17 0 27.5 -1.5t25 -7t22 -19.5t7.5 -36q0 -17 -6 -29.5t-13.5 -18.5t-20.5 -9 t-21 -3.5t-21 -0.5h-315q-17 0 -27.5 1t-25 6.5t-22 19.5t-7.5 36q0 28 15.5 43t30 17t36.5 2h100v1001h-100q-17 0 -27.5 1.5t-25 7t-22 19.5t-7.5 36q0 17 6 29.5t13.5 18.5t20.5 9t21 3.5t21 0.5h133q51 0 66.5 -17.5t15.5 -66.5v-721l332 312h-76q-13 0 -21 0.5t-21 3.5 t-20.5 9t-13.5 18.5t-6 29.5q0 22 7.5 36t22 19.5t25 7t27.5 1.5h315q16 0 27 -1.5t26 -7t23 -19.5t8 -36q0 -21 -8 -35t-23.5 -19t-25.5 -6t-27 -1h-71l-252 -236l305 -397h63q16 0 27 -1.5t26 -7t23 -19.5t8 -36z" />
<glyph unicode="l" d="M956 61q0 -17 -6 -29.5t-13.5 -18.5t-20.5 -9t-21 -3.5t-21 -0.5h-673q-16 0 -26 1t-25 6t-23 19t-8 35q0 22 7.5 36t22.5 19.5t26 7t28 1.5h264v1001h-266q-21 0 -35.5 2t-30.5 17t-16 43q0 22 7.5 36t23 19.5t25.5 6.5t28 1h323q51 0 66.5 -17.5t15.5 -66.5v-1042h266 q17 0 27.5 -1.5t25 -7t22 -19.5t7.5 -36z" />
<glyph unicode="m" d="M1057 61q0 -21 -8 -35t-23.5 -19t-25.5 -6t-27 -1h-154q-13 0 -20.5 0.5t-21 3.5t-21.5 9t-14.5 18.5t-6.5 29.5q0 22 7.5 36t23.5 19.5t27.5 7t31.5 1.5v477q0 95 -18.5 131.5t-56.5 36.5q-68 0 -118 -74.5t-50 -203.5v-367q27 0 41 -0.5t31 -4t25 -10t13.5 -18.5 t5.5 -31q0 -21 -8 -35t-23.5 -19t-25.5 -6t-27 -1h-153q-13 0 -20.5 0.5t-21 3.5t-21.5 9t-14.5 18.5t-6.5 29.5q0 22 7.5 36t23.5 19.5t27.5 7t31.5 1.5v477q0 94 -19 131t-57 37q-68 0 -118 -74.5t-50 -203.5v-367q34 0 50.5 -1t34.5 -7t25 -19.5t7 -36.5q0 -21 -8 -35 t-23.5 -19t-25.5 -6t-27 -1h-180q-13 0 -20.5 0.5t-21 3.5t-21.5 9t-14.5 18.5t-6.5 29.5q0 19 5.5 31t13.5 18.5t25.5 10t31.5 4t41 0.5v633q-28 0 -41 0.5t-31 3.5t-25.5 9.5t-13.5 18.5t-6 31q0 21 8 35t23 19t26 6.5t27 1.5h65q18 0 28.5 -1.5t24 -6.5t21 -18.5 t8.5 -35.5q81 74 176 74q52 0 92.5 -27.5t63.5 -79.5q39 55 95 81t108 26q37 0 67 -13.5t48.5 -33t32 -49t20 -53t10 -53.5t4 -43t0.5 -29v-496q34 0 50.5 -1t34.5 -7t25 -19.5t7 -36.5z" />
<glyph unicode="n" d="M1049 61q0 -21 -8 -35t-23 -19t-25 -6t-26 -1h-314q-13 0 -20.5 0.5t-21 3.5t-21.5 9t-14.5 18.5t-6.5 29.5q0 22 7.5 36t22.5 19.5t26 7t28 1.5h80v465q0 96 -29 138t-108 42q-42 0 -84.5 -16t-82 -48t-64.5 -89t-25 -130v-362h90q17 0 28 -1.5t26 -7t22.5 -19.5 t7.5 -36q0 -21 -8 -35t-23 -19t-25 -6t-26 -1h-326q-13 0 -20 0.5t-20.5 3.5t-21 9t-13.5 18.5t-6 29.5q0 22 7.5 36t22.5 19.5t26 7t28 1.5h90v633h-93q-13 0 -20 0.5t-20.5 3.5t-21 9t-13.5 18.5t-6 29.5q0 22 7.5 36t22.5 19.5t26 7t28 1.5h149q57 0 69.5 -20t12.5 -77 q41 41 109 75t159 34q126 0 196 -72.5t70 -222.5v-475h91q17 0 28 -1.5t26 -7t22.5 -19.5t7.5 -36z" />
<glyph unicode="o" d="M956 442q0 -191 -124 -322.5t-295 -131.5t-295.5 131t-124.5 323q0 191 123.5 325t296.5 134q113 0 209.5 -61t153 -166.5t56.5 -231.5zM815 457q0 137 -82.5 228t-195.5 91q-112 0 -195.5 -91.5t-83.5 -227.5q0 -142 82.5 -243t196.5 -101t196 101t82 243z" />
<glyph unicode="p" d="M999 442q0 -95 -34.5 -180t-92 -144.5t-134.5 -94.5t-160 -35q-136 0 -238 104v-422h90q18 0 28 -1t25.5 -6.5t23 -19.5t7.5 -36q0 -28 -16 -43t-30.5 -17t-35.5 -2h-326q-15 0 -25.5 1.5t-25 6.5t-22.5 19t-8 35q0 22 7.5 36t23 19.5t25.5 6.5t28 1h90v1088h-93 q-13 0 -20 0.5t-20.5 3.5t-21 9t-13.5 18.5t-6 29.5q0 22 7.5 36t22.5 19.5t26 7t28 1.5h149q54 0 68 -19t14 -69q111 100 260 100q107 0 199 -60t146 -164.5t54 -228.5zM858 442q0 135 -78.5 231.5t-191.5 96.5q-97 0 -172.5 -69.5t-75.5 -159.5v-150q0 -39 14 -85 t41 -90.5t73 -73.5t103 -29q112 0 199.5 93.5t87.5 235.5z" />
<glyph unicode="q" d="M1100 -393q0 -28 -15.5 -43t-30 -17t-36.5 -2h-342q-17 0 -27.5 1.5t-25 7t-22 19.5t-7.5 36q0 17 6 29.5t13.5 18.5t20.5 9t21 3.5t21 0.5h100v441q-44 -48 -114 -85.5t-162 -37.5q-170 0 -294 131.5t-124 320.5q0 191 131.5 323t306.5 132q151 0 256 -113q0 29 0.5 42 t4 30.5t11 24t21.5 11.5t35 5q25 0 40.5 -7t21 -21.5t7 -25t1.5 -30.5v-1141h100q18 0 28 -1t24.5 -6.5t22 -19.5t7.5 -36zM776 397v80q0 70 -28.5 136t-86.5 111.5t-131 45.5q-125 0 -216 -95.5t-91 -234.5q0 -136 85 -231.5t200 -95.5q60 0 112 28t85.5 70.5t52 91.5 t18.5 94z" />
<glyph unicode="r" d="M997 768q0 -40 -25.5 -64t-60.5 -24q-37 0 -61.5 26t-26.5 64q-90 0 -162 -33.5t-116 -89t-67 -124t-23 -142.5v-256h227q16 0 27 -1.5t26 -7t23 -19.5t8 -36q0 -21 -8 -35t-23.5 -19t-25.5 -6t-27 -1h-535q-17 0 -27 1t-25 6.5t-22 19.5t-7 36t7.5 35.5t22 18.5t25 6.5 t26.5 1.5h166v633h-166q-17 0 -27 1t-25 6.5t-22 19.5t-7 36t7.5 35.5t22 18.5t25 6.5t26.5 1.5h226q51 0 66.5 -17.5t15.5 -66.5v-70q145 166 348 166q60 0 101.5 -13.5t60 -35.5t25.5 -40.5t7 -37.5z" />
<glyph unicode="s" d="M940 256q0 -33 -9 -66t-35 -70.5t-67.5 -65.5t-113 -47t-164.5 -19q-161 0 -266 78q-11 -35 -27 -53.5t-26 -21.5t-23 -3q-17 0 -29.5 6t-18.5 13.5t-9.5 21t-4 22t-0.5 21.5v198q0 21 1.5 31.5t7.5 25t21.5 21t41.5 6.5q37 0 50 -13.5t22 -45.5q18 -57 48 -95.5 t67.5 -56t71 -24t75.5 -6.5q132 0 197 40.5t65 102.5q0 26 -11.5 47.5t-35.5 37t-46.5 26t-58.5 19t-57 13t-55 9.5q-54 8 -83 13t-78.5 16.5t-77.5 22.5t-64 30.5t-55 42t-32.5 55t-13.5 71.5q0 27 7 54t32 62.5t65.5 62t114.5 45t171 18.5q129 0 219 -43q12 43 61 43 q17 0 29.5 -6t18.5 -13.5t9.5 -21t4 -22t0.5 -21.5v-141q0 -21 -1.5 -31.5t-7.5 -25t-21.5 -21t-41.5 -6.5q-23 0 -37.5 5.5t-21 17t-8.5 21.5t-3 26q-3 23 -11.5 40.5t-29 35.5t-62 28t-102.5 10q-134 0 -197 -35t-63 -82q0 -85 199 -112l139 -25q22 -3 40 -6.5t54 -13.5 t64.5 -22t62 -33t56 -46.5t38 -63t15.5 -81.5z" />
<glyph unicode="t" d="M920 258q0 -86 -48.5 -149.5t-119 -92t-150.5 -28.5q-124 0 -206.5 66t-82.5 204v500h-180q-13 0 -21 0.5t-21 3.5t-20.5 9t-13.5 18.5t-6 29.5q0 22 7.5 36t22.5 19.5t26 7t28 1.5h178v168q0 21 1.5 31.5t7.5 25t21.5 21t41.5 6.5q25 0 40.5 -7t21 -21.5t7 -25 t1.5 -30.5v-168h336q17 0 27.5 -1.5t24.5 -7t21.5 -19.5t7.5 -36q0 -17 -6 -29.5t-13 -18.5t-20.5 -9t-21 -3.5t-20.5 -0.5h-336v-488q0 -23 1 -37t9 -39.5t23 -40.5t47 -27.5t77 -12.5q17 0 35.5 3t42.5 12.5t42.5 24.5t31.5 43t14 64q0 23 2.5 37t19 27.5t48.5 13.5 q26 0 41.5 -6.5t21.5 -20.5t7.5 -24t1.5 -29z" />
<glyph unicode="u" d="M1049 63q0 -22 -7.5 -36t-23 -19.5t-25.5 -6.5t-28 -1h-150q-19 0 -29 1t-24 7t-21 20.5t-8 37.5q-104 -78 -244 -78q-290 0 -290 245v525h-93q-13 0 -20 0.5t-20.5 3.5t-21 9t-13.5 18.5t-6 29.5q0 22 7.5 36t22.5 19.5t26 7t28 1.5h149q51 0 66.5 -17.5t15.5 -66.5 v-553q0 -26 1 -40t9.5 -35t24.5 -31t48 -18.5t79 -8.5q24 0 49.5 4t59.5 17t60 34.5t44 61.5t18 92v436h-92q-16 0 -26 1t-25 6t-23 19t-8 35q0 22 7.5 36t22.5 19.5t26 7t28 1.5h150q51 0 66 -17.5t15 -66.5v-674h93q21 0 35.5 -2t30.5 -17t16 -43z" />
<glyph unicode="v" d="M1024 819q0 -17 -6 -29.5t-13.5 -18.5t-20.5 -9t-21 -3.5t-21 -0.5h-61l-236 -699q-8 -24 -20 -39t-29 -20.5t-27.5 -6.5t-31.5 -1q-22 0 -32.5 1t-27.5 7t-28.5 21t-20.5 40l-235 697h-62q-13 0 -21 0.5t-21 3.5t-20.5 9t-13.5 18.5t-6 29.5q0 22 7.5 36t22 19.5t25 7 t27.5 1.5h240q17 0 27.5 -1.5t25 -7t22 -19.5t7.5 -36q0 -17 -6 -29.5t-13.5 -18.5t-20.5 -9t-21 -3.5t-21 -0.5h-58l224 -660l223 660h-58q-17 0 -27 1t-25 6.5t-22 19.5t-7 36t7.5 35.5t22 18.5t25 6.5t26.5 1.5h240q17 0 27.5 -1.5t25 -7t22 -19.5t7.5 -36z" />
<glyph unicode="w" d="M1040 821q0 -18 -5.5 -30.5t-13 -19t-23.5 -9.5t-27 -3.5t-35 -0.5l-123 -688q-4 -22 -7 -32t-12 -23t-26.5 -18t-44.5 -5q-61 0 -86 35q-11 21 -49.5 157t-44.5 205h-2q-11 -80 -60 -254q-29 -98 -47.5 -120.5t-77.5 -22.5q-56 0 -72.5 17.5t-23.5 60.5l-123 688 q-24 0 -35 0.5t-27 3.5t-23.5 9.5t-13 19t-5.5 30.5q0 22 7.5 35.5t22.5 18.5t26 6.5t30 1.5h235q19 0 30.5 -1.5t26.5 -7t22 -19.5t7 -36q0 -18 -6 -30t-13 -18t-21 -9t-22.5 -3.5t-23.5 -0.5h-100l106 -611h2q6 28 49 177t48 161q23 45 82 45q51 0 67.5 -23.5t44.5 -120.5 q1 -5 2 -7q51 -170 60 -232h2l102 611h-100q-20 0 -31 1t-26 6.5t-22 19.5t-7 36t7.5 35.5t22.5 18.5t26 6.5t30 1.5h235q19 0 30 -1.5t26 -6.5t22.5 -18.5t7.5 -35.5z" />
<glyph unicode="x" d="M1016 61q0 -17 -6.5 -29.5t-14.5 -18.5t-21.5 -9t-21 -3.5t-20.5 -0.5h-240q-13 0 -21 0.5t-21 3.5t-20.5 9t-13.5 18.5t-6 29.5q0 18 6 30.5t13.5 19t23 10t27 4t33.5 0.5l-183 252l-176 -252q30 0 44.5 -1.5t31.5 -7t24 -19t7 -36.5q0 -17 -6 -29.5t-13.5 -18.5 t-20.5 -9t-21 -3.5t-21 -0.5h-240q-13 0 -20.5 0.5t-21 3.5t-21.5 9t-14.5 18.5t-6.5 29.5q0 22 8 36t23 19.5t26 7t27 1.5h82l254 330l-242 303h-81q-13 0 -20.5 0.5t-21 3.5t-21.5 9t-14.5 18.5t-6.5 29.5q0 22 8 36t23 19.5t26 7t27 1.5h239q22 0 36.5 -2t30 -17 t15.5 -43q0 -18 -5.5 -30.5t-13 -19t-23 -9.5t-25.5 -3.5t-31 -0.5l155 -207l152 207q-22 0 -32.5 0.5t-26 3.5t-23 9.5t-13 19t-5.5 30.5q0 28 15.5 43t30 17t36.5 2h239q16 0 27 -1.5t26 -7t23 -19.5t8 -36q0 -17 -6.5 -29.5t-14.5 -18.5t-21.5 -9t-21 -3.5t-20.5 -0.5 h-82l-233 -303l262 -330h82q16 0 27 -1.5t26 -7t23 -19.5t8 -36z" />
<glyph unicode="y" d="M1024 819q0 -17 -6 -29.5t-13.5 -18.5t-20.5 -9t-21 -3.5t-21 -0.5h-61l-318 -932q-7 -20 -15 -40.5t-36.5 -71t-60 -86.5t-83.5 -65.5t-110 -29.5q-73 0 -121.5 50.5t-48.5 117.5q0 40 24.5 65t65.5 25q38 0 63 -25t25 -63q0 -12 -2.5 -23.5t-5.5 -16.5l-2 -5q19 1 32 4 t38 13.5t49 36t45 65.5q12 23 31.5 78.5t32.5 100.5l14 44q-1 7 -9 27l-290 731h-64q-13 0 -21 0.5t-21 3.5t-20.5 9t-13.5 18.5t-6 29.5q0 22 7.5 36t22 19.5t25 7t27.5 1.5h240q17 0 27.5 -1.5t25 -7t22 -19.5t7.5 -36q0 -17 -6 -29.5t-13.5 -18.5t-20.5 -9t-21 -3.5 t-21 -0.5h-51l190 -492q4 -12 14 -37.5t17.5 -46t11.5 -37.5h2q17 74 53 177l148 436h-58q-17 0 -27 1t-25 6.5t-22 19.5t-7 36t7.5 35.5t22 18.5t25 6.5t26.5 1.5h240q17 0 27.5 -1.5t25 -7t22 -19.5t7.5 -36z" />
<glyph unicode="z" d="M973 84q0 -16 -1 -25t-4.5 -23t-13.5 -23t-26 -13h-776q-20 0 -30.5 1.5t-25 7t-21.5 21t-7 40.5q0 27 6.5 39.5t38.5 42.5l639 606h-510v-53q0 -21 -1.5 -31.5t-7.5 -25t-21.5 -21t-41.5 -6.5q-25 0 -40.5 7t-21 21.5t-7 25t-1.5 30.5v94q0 51 16.5 67.5t67.5 16.5h697 q20 0 30.5 -1.5t25 -7t21.5 -21t7 -40.5q0 -27 -6.5 -39.5t-38.5 -42.5l-639 -606h550v78q0 21 1.5 31.5t7.5 25t21.5 21t41.5 6.5q25 0 40.5 -7t21 -21.5t7 -25t1.5 -30.5v-119z" />
<glyph unicode="{" d="M956 -106q0 -22 -7.5 -36t-22.5 -19.5t-26 -7t-30 -1.5q-185 0 -297 61q-37 21 -60.5 48t-32.5 59.5t-11 53t-2 52.5v340q-4 109 -281 119q-69 0 -69 64q0 32 19 46.5t34 14.5q144 0 223 33q22 10 36 20.5t22 20t11.5 26.5t4 29.5t0.5 40.5v184q0 160 2 172 q10 52 42 90.5t72.5 60t94 35t98.5 17.5t94 4q19 0 30 -1t26 -6.5t22.5 -19.5t7.5 -36q0 -32 -19 -47t-34 -15q-250 0 -289 -82q-6 -16 -6 -149v-270q-2 -43 -30.5 -89t-88.5 -81q40 -22 66 -48.5t36.5 -55t13.5 -48.5t3 -45v-330q0 -26 2 -39.5t16 -35.5t42 -34t83.5 -22 t135.5 -12q69 0 69 -61z" />
<glyph unicode="|" d="M608 -74q0 -96 -71 -96q-72 0 -72 96v1399q0 96 72 96q71 0 71 -96v-1399z" />
<glyph unicode="}" d="M956 625q0 -32 -19 -47t-34 -15q-142 0 -221 -33q-22 -10 -36 -20.5t-22 -20t-11.5 -26.5t-4 -29.5t-0.5 -40.5v-184q0 -160 -2 -172q-11 -60 -50 -102t-97.5 -64t-120.5 -31.5t-135 -9.5q-18 0 -29 1.5t-26.5 7t-23 19.5t-7.5 36q0 32 19 46.5t34 14.5q62 1 110 6t79 12 t52.5 19.5t32 22t16.5 26t6.5 25.5t0.5 26v365q0 6 1 15t8 29.5t18.5 40t35.5 43t56 42.5q-119 64 -119 194v330q0 27 -2 41.5t-16.5 37t-42.5 34t-84 21.5t-138 11q-67 0 -67 62q0 22 7.5 36t23 19.5t26 6.5t29.5 1q186 0 299 -61q37 -21 60.5 -48t32.5 -59t11 -51.5 t2 -50.5v-342q4 -110 279 -121q69 0 69 -63z" />
<glyph unicode="~" d="M897 684q0 -17 -18.5 -40t-35.5 -37t-46 -36q-90 -67 -160 -67q-32 0 -61.5 13.5t-42 24t-33.5 31.5q-3 2 -8.5 7.5l-8 8t-7.5 7t-7.5 6t-6.5 4.5t-6.5 4.5t-6 3t-7 2t-6.5 0.5q-47 0 -143 -90q-26 -22 -49 -22q-25 0 -44.5 20t-19.5 45q0 17 19 40t35.5 36.5t46.5 36.5 q91 68 159 68q32 0 62 -13.5t42.5 -24.5t33.5 -32q4 -3 11 -10t10 -9.5t8.5 -7.5t9 -7t8 -4.5t8.5 -3.5t8 -1q47 0 143 90q27 23 50 23q24 0 43.5 -20.5t19.5 -45.5z" />
<glyph unicode="&#xa0;" />
<glyph unicode="&#xa1;" d="M639 694q0 -43 -29.5 -72.5t-72.5 -29.5t-73 29.5t-30 72.5t30 73t73 30t72.5 -30t29.5 -73zM639 -360q0 -31 -9 -54t-21.5 -34.5t-28.5 -18.5t-25.5 -8.5t-17.5 -1.5q-11 0 -24.5 3.5t-33 13.5t-32.5 36t-13 64q0 61 4.5 173.5t5.5 153.5l9 355q3 63 17 80.5t67 17.5 q79 0 81 -51l7 -250z" />
<glyph unicode="&#xa2;" d="M954 223q0 -12 -8 -34.5t-29.5 -54.5t-53 -61t-86.5 -52.5t-122 -30.5v-117q0 -26 -18.5 -44.5t-44.5 -18.5t-45 18.5t-19 44.5v121q-165 26 -271.5 153t-106.5 295q0 65 20.5 133.5t63 135t119 116.5t175.5 66v117q0 26 19 44.5t45 18.5t44.5 -18.5t18.5 -44.5v-109 q275 -5 275 -149q0 -43 -27 -69t-65 -26q-39 0 -64 25t-26 76q0 18 -93 18v-661q118 16 160 121q10 28 25 36.5t43 8.5q71 0 71 -58zM528 125v641q-69 -17 -118.5 -58t-73.5 -91.5t-34.5 -93.5t-10.5 -81q0 -115 67 -202t170 -115z" />
<glyph unicode="&#xa3;" d="M1038 295q0 -128 -63.5 -223t-167.5 -95q-23 0 -44.5 3.5t-44.5 13t-39.5 17t-41 24t-36 24.5t-39.5 29l-36 27q-39 -64 -119.5 -101t-173.5 -37q-82 0 -139 55.5t-57 135.5q0 87 77 139.5t181 52.5q48 0 100 -20q-6 21 -13 42t-18.5 47t-17.5 39t-22.5 46l-20.5 41h-133 q-30 0 -51 21t-21 51q0 29 21.5 50t50.5 21h66q-39 97 -39 185q0 153 107.5 260.5t260.5 107.5q149 0 258 -94t109 -233q0 -37 -26.5 -63.5t-63.5 -26.5t-63.5 26.5t-26.5 63.5q0 34 24 61q-23 56 -82 89.5t-129 33.5q-93 0 -159 -66t-66 -159q0 -88 39 -185h330 q29 0 50 -21t21 -50q0 -31 -21 -51.5t-50 -20.5h-263q38 -76 53 -108t34.5 -94.5t21.5 -114.5q52 -40 80.5 -59t77 -38.5t94.5 -19.5q88 0 88 174q0 29 21.5 50.5t50.5 21.5q30 0 50.5 -21t20.5 -51zM408 190q-59 27 -113 27q-25 0 -41 -1t-35.5 -5.5t-29 -15t-9.5 -27.5 q0 -20 15.5 -33.5t37.5 -13.5q62 0 110.5 16.5t64.5 52.5z" />
<glyph unicode="&#xa4;" d="M862 301q-48 -48 -116 13l-1.5 1.5l-1.5 1.5l-47 50q-73 -45 -157 -45q-90 0 -160 45l-47 -48q-13 -12 -20.5 -17t-26 -15t-37 -6t-35.5 22q-18 17 -22 35.5t6 37t15 26t17 20.5l47 47q-43 72 -43 158q0 85 43 157l-49 50q-33 37 -37 61q-5 31 21 57q48 48 116 -13l3 -3 l49 -49q70 45 160 45q84 0 157 -45l45 47q13 12 20.5 17t26 15t37 6t35.5 -22q18 -17 22 -35.5t-6 -37t-15 -26t-17 -20.5l-47 -45q45 -73 45 -159q0 -87 -45 -160l49 -47q36 -40 38 -67q2 -28 -22 -52zM698 627q0 66 -46.5 113.5t-112.5 47.5q-67 0 -114.5 -47.5 t-47.5 -113.5t47.5 -114t114.5 -48q66 0 112.5 48t46.5 114z" />
<glyph unicode="&#xa5;" d="M1034 1188q0 -28 -15.5 -43t-30 -17t-36.5 -2h-43l-129 -268h80q29 0 50.5 -21.5t21.5 -50.5q0 -30 -21 -50.5t-51 -20.5h-149l-84 -176h233q30 0 51 -21t21 -51q0 -29 -21.5 -50.5t-50.5 -21.5h-252v-270h51q17 0 27.5 -1.5t25 -7t22 -19.5t7.5 -36q0 -17 -6 -29.5 t-13.5 -18.5t-20.5 -9t-21 -3.5t-21 -0.5h-243q-18 0 -28 1t-24.5 6.5t-22 19.5t-7.5 36q0 28 15.5 43t30 17t36.5 2h51v270h-252q-29 0 -50.5 21.5t-21.5 50.5q0 30 21 51t51 21h234l-87 176h-147q-30 0 -51 20.5t-21 50.5q0 29 21.5 50.5t50.5 21.5h78l-129 268h-43 q-17 0 -27.5 1.5t-25 7t-22 19.5t-7.5 36q0 17 6 29.5t13.5 18.5t20.5 9t21 3.5t21 0.5h213q13 0 21 -0.5t21 -3.5t20.5 -9t13.5 -18.5t6 -29.5q0 -23 -7 -36.5t-22.5 -19t-28 -7t-36.5 -1.5l127 -268h184l119 268q-19 0 -29.5 0.5t-25 4t-22 10t-13 19t-5.5 30.5 q0 17 6 29.5t13.5 18.5t20.5 9t21 3.5t21 0.5h213q18 0 28 -1t24.5 -6.5t22 -19.5t7.5 -36zM569 715h-57q4 -10 10 -26t9.5 -27t5.5 -19z" />
<glyph unicode="&#xa6;" d="M608 834q0 -27 -20.5 -45.5t-50.5 -18.5t-51 18.5t-21 45.5v491q0 96 72 96q71 0 71 -96v-491zM608 -74q0 -96 -71 -96q-72 0 -72 96v492q0 27 21 45t51 18t50.5 -18t20.5 -45v-492z" />
<glyph unicode="&#xa7;" d="M1004 397q0 -65 -31.5 -119.5t-85.5 -89.5q47 -63 47 -137q0 -90 -57 -160t-146 -105.5t-192 -35.5q-102 0 -190 28t-147 88.5t-59 143.5q0 37 26.5 63.5t63.5 26.5t64 -26.5t27 -63.5q0 -28 -19 -55q45 -61 234 -61q66 0 121 16t93 52.5t38 88.5q0 27 -13.5 50.5t-30 38 t-49.5 30.5t-53 23.5t-59 21.5l-211 72q-130 44 -215.5 133.5t-85.5 206.5q0 64 31.5 119t84.5 88q-47 66 -47 139q0 90 57 160t146.5 105.5t192.5 35.5q102 0 190 -28t146.5 -88.5t58.5 -143.5q0 -37 -26.5 -63.5t-63.5 -26.5t-63.5 26.5t-26.5 63.5q0 30 18 55 q-45 61 -233 61q-66 0 -121 -16t-93 -52.5t-38 -88.5q0 -27 13.5 -50.5t30 -38t49.5 -30.5t53 -23.5t59 -21.5l210 -72q130 -44 216 -133.5t86 -206.5zM860 397q0 132 -205 205l-211 72q-77 24 -145 65q-36 -9 -59 -41t-23 -71q0 -132 205 -205l211 -72q81 -29 145 -67 q37 10 59.5 42t22.5 72z" />
<glyph unicode="&#xa8;" d="M461 1137q0 -38 -27 -65.5t-65 -27.5t-65.5 27.5t-27.5 65.5q0 39 27 65.5t66 26.5t65.5 -26.5t26.5 -65.5zM799 1137q0 -38 -27 -65.5t-65 -27.5t-65.5 27.5t-27.5 65.5q0 39 27 65.5t66 26.5t65.5 -26.5t26.5 -65.5z" />
<glyph unicode="&#xa9;" d="M1075 539q0 -146 -72 -270t-195.5 -196.5t-268.5 -72.5q-146 0 -270 72.5t-196.5 196.5t-72.5 270q0 145 72.5 268.5t196.5 195.5t270 72q145 0 268.5 -72t195.5 -195.5t72 -268.5zM997 539q0 189 -134.5 323.5t-323.5 134.5q-190 0 -325.5 -134.5t-135.5 -323.5 q0 -125 62 -231t168 -168t231 -62q189 0 323.5 135.5t134.5 325.5zM741 385q0 -76 -64.5 -136.5t-158.5 -60.5q-109 0 -187.5 100.5t-78.5 250.5q0 148 78.5 248t187.5 100q85 0 144 -53q5 10 8 17t4.5 9.5t2 4.5t1.5 3q14 19 31 19q15 0 22.5 -8.5t8.5 -15.5t1 -21v-154 q0 -11 -0.5 -17t-4 -13.5t-12 -11t-22.5 -3.5q-15 0 -23.5 6.5t-10 12t-2.5 18.5q-12 65 -52 102t-92 37q-76 0 -135 -80.5t-59 -199.5q0 -121 58.5 -202t135.5 -81q28 0 57 10t56 42t31 81q2 33 36 33q39 0 39 -37z" />
<glyph unicode="&#xaa;" d="M874 688q0 -21 -11 -31.5t-23 -12t-37 -1.5q-36 0 -59.5 2t-53 13t-43.5 32q-83 -55 -209 -55q-106 0 -171.5 57t-65.5 135q0 100 117 155t313 58q0 74 -48.5 110t-133.5 36h-52q-22 -3 -26 -5.5t-4 -11.5q-1 -35 -21 -50t-43 -15q-27 0 -45 17t-18 48q0 105 206 105 q74 0 131 -20t89.5 -53t48.5 -70.5t16 -77.5v-312q25 -10 86 -10q57 0 57 -43zM811 528q0 -19 -18 -31t-45 -12h-420q-27 0 -45.5 12.5t-18.5 30.5q0 19 19 32t45 13h420q26 0 44.5 -13t18.5 -32zM631 836v120q-153 -4 -241.5 -40t-88.5 -89q0 -44 41 -74t107 -30 q75 0 126 25q26 12 39 27.5t15 27.5t2 33z" />
<glyph unicode="&#xab;" d="M979 231q0 -31 -13 -48t-32 -17q-14 0 -37 18l-446 385q-23 23 -23 58q0 16 6 29.5t9.5 17.5t13.5 14l440 381q23 18 37 18q19 0 32 -17t13 -48q0 -34 -31 -61l-385 -334l385 -334q31 -27 31 -62zM647 231q0 -31 -13 -48t-32 -17q-14 0 -37 18l-446 385q-23 23 -23 58 q0 16 6 29.5t9.5 17.5t13.5 14l440 381q23 18 37 18q19 0 32 -17t13 -48q0 -34 -31 -61l-385 -334l385 -334q31 -27 31 -62z" />
<glyph unicode="&#xac;" d="M995 471q0 -29 -21 -50.5t-50 -21.5t-50.5 21.5t-21.5 50.5v240h-702q-29 0 -50.5 21t-21.5 50t21.5 50.5t50.5 21.5h774q29 0 50 -21.5t21 -50.5v-311z" />
<glyph unicode="&#xad;" d="M958 627q0 -72 -96 -72h-651q-96 0 -96 72q0 71 96 71h651q96 0 96 -71z" />
<glyph unicode="&#xae;" d="M1075 539q0 -146 -72 -270t-195.5 -196.5t-268.5 -72.5q-146 0 -270 72.5t-196.5 196.5t-72.5 270q0 145 72.5 268.5t196.5 195.5t270 72q145 0 268.5 -72t195.5 -195.5t72 -268.5zM997 539q0 189 -134.5 323.5t-323.5 134.5q-190 0 -325.5 -134.5t-135.5 -323.5 q0 -125 62 -231t168 -168t231 -62q189 0 323.5 135.5t134.5 325.5zM844 309q0 -40 -24.5 -77t-71.5 -37q-59 0 -86 49q-14 26 -17.5 53.5t-3.5 87.5q0 41 -4 59.5t-21 34.5q-37 31 -90 31h-86v-236h27q14 0 21 -1t15.5 -9t8.5 -24q0 -33 -45 -33h-131q-43 0 -43 33 q0 16 8.5 24t15 9t19.5 1h29v539h-29q-43 0 -43 35q0 33 43 33h196q93 0 153 -55.5t60 -129.5q0 -41 -21.5 -83t-70.5 -70q38 -33 54 -68q7 -20 8.5 -35t1.5 -69q0 -29 0.5 -43t3 -32.5t9.5 -26t18 -7.5q20 0 20 49q2 33 39 33t37 -35zM670 696q0 44 -40 80.5t-110 36.5h-80 v-235h80q70 0 110 36t40 82z" />
<glyph unicode="&#xaf;" d="M926 1137q0 -22 -7.5 -36t-22 -19.5t-25 -7t-27.5 -1.5h-608q-18 0 -28.5 1.5t-25.5 7t-22.5 20t-7.5 37.5q0 22 7 36t22 19.5t25 6.5t27 1h611q19 0 28.5 -1t24.5 -6.5t22 -20t7 -37.5z" />
<glyph unicode="&#xb0;" d="M836 952q0 -123 -87 -211t-210 -88q-124 0 -211.5 88t-87.5 211q0 124 87 211.5t212 87.5q123 0 210 -87.5t87 -211.5zM692 952q0 64 -45 110t-108 46q-65 0 -110.5 -46t-45.5 -110t45.5 -109.5t110.5 -45.5q63 0 108 45.5t45 109.5z" />
<glyph unicode="&#xb1;" d="M995 72q0 -72 -96 -72h-725q-96 0 -96 72q0 71 96 71h291v246h-291q-96 0 -96 72q0 71 96 71h291v293q0 97 72 97q71 0 71 -97v-293h291q96 0 96 -71q0 -72 -96 -72h-291v-246h291q96 0 96 -71z" />
<glyph unicode="&#xb2;" d="M754 680q0 -25 -8.5 -34t-32.5 -9h-348q-12 0 -18.5 1t-14.5 9t-8 23q0 12 14 26l227 191q117 98 117 188q0 64 -47.5 100.5t-114.5 36.5q-43 0 -76 -22t-45 -57q15 -9 15 -33q0 -21 -13.5 -33t-31.5 -12q-16 0 -30.5 11.5t-14.5 37.5q0 68 56.5 119t143.5 51 q97 0 163.5 -54.5t66.5 -144.5q0 -107 -113 -205q-19 -18 -54 -47.5t-82.5 -68t-66.5 -54.5h244q0 18 1.5 26t9.5 15t26 7q16 0 24.5 -7.5t9.5 -14t1 -19.5v-27z" />
<glyph unicode="&#xb3;" d="M762 815q0 -74 -62.5 -131t-158.5 -57q-97 0 -161.5 41.5t-64.5 107.5q0 23 13 36t32 13q20 0 33 -13t13 -32t-13 -32q18 -31 62.5 -45.5t85.5 -14.5q66 0 107.5 39t41.5 88t-41 89t-112 40h-48q-12 0 -18.5 1t-14 8.5t-7.5 21.5q0 22 12.5 27t60.5 8q24 1 35 2.5t28 8 t33 19.5q44 37 44 88q0 36 -34.5 60t-86.5 24q-83 0 -115 -32q10 -5 10 -27q0 -20 -14.5 -33.5t-30.5 -13.5q-18 0 -32.5 12.5t-14.5 36.5q0 53 52 86t143 33q86 0 139 -42.5t53 -101.5q0 -43 -22.5 -83.5t-63.5 -67.5q53 -24 85 -67t32 -97z" />
<glyph unicode="&#xb4;" d="M756 1202q0 -45 -58 -72l-272 -120q-22 -11 -37 -11q-34 0 -50.5 30t-16.5 52q0 25 12.5 37t38.5 23l272 123q10 4 20 6.5t15 3.5h4q31 0 51.5 -20.5t20.5 -51.5z" />
<glyph unicode="&#xb5;" d="M1051 61q0 -17 -6.5 -29.5t-14 -18.5t-22 -9t-22.5 -3.5t-23 -0.5h-142q-19 0 -30 1t-26.5 6.5t-24 19.5t-9.5 36q-101 -75 -242 -75q-93 0 -149 22v-340h86q19 0 30 -1t27 -6.5t23.5 -19.5t7.5 -36t-8 -35.5t-23.5 -18.5t-27 -6.5t-29.5 -1.5h-315q-19 0 -30.5 1.5 t-27 7t-23 19.5t-7.5 36q0 17 6.5 29.5t14 18.5t22 9t22.5 3.5t23 0.5h86v1086h-86q-19 0 -30 1t-27 6.5t-23.5 19.5t-7.5 36t8 35.5t23.5 18.5t27 6.5t29.5 1.5h141q55 0 71.5 -17t16.5 -71v-545q0 -28 1 -42t9.5 -35t24.5 -31.5t48 -18.5t79 -8q98 0 166 53 q23 19 37.5 39.5t20 44.5t6.5 37t1 37v432h-86q-19 0 -30 1t-27 6.5t-23.5 19.5t-7.5 36t8 35.5t23.5 18.5t27 6.5t29.5 1.5h141q55 0 72 -17t17 -71v-668h86q19 0 30.5 -1.5t27 -7t23 -19.5t7.5 -36z" />
<glyph unicode="&#xb6;" d="M1024 1380q0 -15 -5 -24t-15 -12t-17 -4t-20 -1h-88v-1669q0 -20 -1 -31.5t-9.5 -23.5t-24.5 -12q-17 0 -26 12t-10 23.5t-1 31.5v1669h-123v-1669q0 -20 -1 -31.5t-9.5 -23.5t-24.5 -12t-24.5 12t-9.5 23.5t-1 31.5v801q-70 3 -140 22t-138.5 58t-121 92.5t-84.5 132.5 t-32 172q0 127 58.5 236t160 173t222.5 64h428q13 0 20 -1t17 -4t15 -12t5 -24z" />
<glyph unicode="&#xb7;" d="M666 625q0 -50 -36.5 -88.5t-92.5 -38.5q-51 0 -89 37t-38 92q0 50 36.5 88.5t92.5 38.5q51 0 89 -37t38 -92z" />
<glyph unicode="&#xb8;" d="M877 -217q0 -34 -11 -62t-27 -48.5t-44.5 -36.5t-53.5 -26t-65.5 -17.5t-68 -11t-73.5 -5.5t-70.5 -2h-68.5q-26 0 -44.5 15.5t-18.5 48.5q0 19 6 31t14 18.5t27 9.5t32.5 3.5t43.5 0.5q280 0 280 82q0 32 -36 55.5t-101 26.5q-24 1 -38 8.5t-20 21.5t-7 24.5t-1 31.5v55 q0 21 1.5 32t7.5 25.5t21.5 21.5t41.5 7t40.5 -5.5t21 -22.5t7.5 -32t1 -50q102 -20 152.5 -76.5t50.5 -122.5z" />
<glyph unicode="&#xb9;" d="M711 668q0 -31 -41 -31h-258q-41 0 -41 31q0 15 8 22.5t14.5 8.5t18.5 1h94v433q-53 -46 -107 -46q-34 0 -34 31t38 31q69 8 111 100q12 25 31 25q14 0 21.5 -8t8 -14.5t0.5 -18.5v-533h95q12 0 18.5 -1t14.5 -8.5t8 -22.5z" />
<glyph unicode="&#xba;" d="M831 952q0 -133 -86.5 -225t-205.5 -92q-120 0 -207.5 91.5t-87.5 225.5t86.5 228t208.5 94q121 0 206.5 -94t85.5 -228zM768 528q0 -19 -18 -31t-45 -12h-334q-27 0 -45.5 12.5t-18.5 30.5q0 19 19 32t45 13h334q26 0 44.5 -13t18.5 -32zM733 963q0 96 -57.5 159.5 t-136.5 63.5t-138 -63.5t-59 -159.5q0 -99 58.5 -169.5t138.5 -70.5q79 0 136.5 70.5t57.5 169.5z" />
<glyph unicode="&#xbb;" d="M977 627q0 -35 -23 -58l-446 -385q-22 -18 -37 -18q-19 0 -32 17t-13 48q0 35 31 62l385 334l-385 334q-31 27 -31 61q0 31 13 48t32 17q15 0 37 -18l440 -381q10 -10 13.5 -14t9.5 -17.5t6 -29.5zM645 627q0 -36 -22 -58l-447 -385q-22 -18 -37 -18q-19 0 -32 17t-13 48 q0 35 31 62l385 334l-385 334q-31 27 -31 61q0 31 13 48t32 17q15 0 37 -18l440 -381q10 -10 13.5 -14t9.5 -17.5t6 -29.5z" />
<glyph unicode="&#xbc;" d="M399 668q0 -31 -41 -31h-258q-41 0 -41 31q0 15 8 22.5t14.5 8.5t18.5 1h95v433q-53 -46 -107 -46q-35 0 -35 31t39 31q69 8 111 100q4 8 6.5 12t9 8.5t14.5 4.5q31 0 31 -41v-533h94q12 0 18.5 -1t14.5 -8.5t8 -22.5zM1022 205q0 -31 -41 -31h-80v-111h64q12 0 18.5 -1 t14.5 -8.5t8 -22.5q0 -31 -41 -31h-185q-41 0 -41 31q0 15 8 22.5t14.5 8.5t18.5 1h64v111h-258q-24 0 -32.5 8t-8.5 33q0 23 10 35l233 366q9 15 16.5 19t26.5 4h29q26 0 33.5 -8t7.5 -35v-360h80q41 0 41 -31zM985 1210q0 -21 -8 -34l-645 -1170q-19 -37 -64 -37 q-29 0 -50 21.5t-21 50.5q0 18 10 35l645 1169q19 37 61 37q30 0 51 -21t21 -51zM844 236v358l-228 -358h228z" />
<glyph unicode="&#xbd;" d="M399 668q0 -31 -41 -31h-258q-41 0 -41 31q0 15 8 22.5t14.5 8.5t18.5 1h95v433q-53 -46 -107 -46q-35 0 -35 31t39 31q69 8 111 100q4 8 6.5 12t9 8.5t14.5 4.5q31 0 31 -41v-533h94q12 0 18.5 -1t14.5 -8.5t8 -22.5zM1022 43q0 -26 -7.5 -34.5t-33.5 -8.5h-346 q-43 0 -43 33q0 13 16 26l226 191q118 99 118 188q0 64 -48.5 100.5t-115.5 36.5q-41 0 -74.5 -22t-43.5 -57q14 -11 14 -33q0 -20 -14 -32.5t-31 -12.5q-18 0 -32.5 11.5t-14.5 37.5q0 67 57.5 118.5t145.5 51.5q97 0 162 -54.5t65 -144.5q0 -105 -111 -205 q-25 -23 -101.5 -86t-100.5 -84h243q0 18 1 26t9 15t25 7q16 0 24.5 -7.5t9.5 -14t1 -19.5v-27zM932 1210q0 -14 -8 -34l-645 -1170q-19 -37 -64 -37q-29 0 -50.5 21.5t-21.5 50.5q0 13 9 35l645 1169q19 37 63 37q29 0 50.5 -21.5t21.5 -50.5z" />
<glyph unicode="&#xbe;" d="M492 815q0 -74 -62.5 -131t-159.5 -57q-96 0 -160.5 41.5t-64.5 107.5q0 24 13.5 36.5t33.5 12.5q19 0 32 -13t13 -32q0 -14 -12 -32q18 -31 61.5 -45.5t83.5 -14.5q67 0 109.5 39t42.5 88t-42 89t-112 40h-47q-41 0 -41 31q0 22 12.5 27t61.5 8q24 1 35 2.5t27 8 t32 19.5q43 34 43 88q0 36 -34.5 60t-86.5 24q-82 0 -112 -32q8 -8 8 -27q0 -21 -13.5 -34t-31.5 -13q-17 0 -31 12.5t-14 36.5q0 53 51.5 86t142.5 33q85 0 139 -42.5t54 -101.5q0 -43 -22.5 -83.5t-63.5 -67.5q53 -24 84 -67t31 -97zM1022 205q0 -31 -41 -31h-80v-111h64 q12 0 18.5 -1t14.5 -8.5t8 -22.5q0 -31 -41 -31h-185q-41 0 -41 31q0 15 8 22.5t14.5 8.5t18.5 1h64v111h-258q-24 0 -32.5 8t-8.5 33q0 23 10 35l233 366q9 15 16.5 19t26.5 4h29q26 0 33.5 -8t7.5 -35v-360h80q41 0 41 -31zM985 1210q0 -21 -8 -34l-645 -1170 q-19 -37 -64 -37q-29 0 -50 21.5t-21 50.5q0 18 10 35l645 1169q19 37 61 37q30 0 51 -21t21 -51zM844 236v358l-228 -358h228z" />
<glyph unicode="&#xbf;" d="M608 694q0 -43 -29.5 -72.5t-72.5 -29.5t-73 29.5t-30 72.5t30 73t73 30t72.5 -30t29.5 -73zM946 -217q0 -45 -15.5 -82.5t-44.5 -62.5t-60.5 -44t-74 -30t-75 -18t-72.5 -9.5t-57.5 -3t-38.5 -0.5q-75 0 -136 12t-99.5 29.5t-67.5 43t-43.5 48.5t-23 49.5t-10 41.5 t-1.5 30q0 42 12.5 76.5t36.5 61t36.5 36.5t35.5 27q176 118 176 313v35q0 53 17 68.5t65 15.5q57 0 69.5 -20t12.5 -87q0 -25 -0.5 -41t-5.5 -49t-14 -59t-28 -63.5t-45.5 -70t-68 -71.5t-94.5 -74q-64 -41 -64 -98q0 -31 14.5 -54.5t40 -36.5t50 -21.5t57 -11.5t47.5 -4 t33 -1q202 0 272 70q-18 21 -18 59q0 41 27.5 66.5t62.5 25.5q36 0 64 -25t28 -71z" />
<glyph unicode="&#xc0;" d="M1018 61q0 -17 -6.5 -29.5t-14 -18.5t-22 -9t-22.5 -3.5t-23 -0.5h-209q-15 0 -23.5 0.5t-22.5 3.5t-21 9t-13 18t-6 30q0 19 5.5 31t13 18.5t24.5 10t31 4t41 0.5l-48 213h-331l-47 -213q27 0 40.5 -0.5t30.5 -4t24.5 -10t13 -18.5t5.5 -31q0 -18 -6 -30t-13 -18t-21 -9 t-22.5 -3.5t-23.5 -0.5h-209q-15 0 -23 0.5t-22.5 3.5t-22 9t-14 18.5t-6.5 29.5q0 42 35 60q12 4 88 4l248 1073q7 28 16 44.5t25.5 23.5t29 8.5t40.5 1.5t42 -1.5t29 -9t23.5 -24t15.5 -45.5l248 -1071q76 0 88 -6q35 -14 35 -58zM672 463l-135 643l-136 -643h271z M754 1460q0 -22 -17 -52t-51 -30q-15 0 -37 11l-272 120q-58 27 -58 72q0 31 20.5 51.5t51.5 20.5q16 -1 39 -11l272 -122q18 -7 27 -12.5t17 -18t8 -29.5z" />
<glyph unicode="&#xc1;" d="M1018 61q0 -17 -6.5 -29.5t-14 -18.5t-22 -9t-22.5 -3.5t-23 -0.5h-209q-15 0 -23.5 0.5t-22.5 3.5t-21 9t-13 18t-6 30q0 19 5.5 31t13 18.5t24.5 10t31 4t41 0.5l-48 213h-331l-47 -213q27 0 40.5 -0.5t30.5 -4t24.5 -10t13 -18.5t5.5 -31q0 -18 -6 -30t-13 -18t-21 -9 t-22.5 -3.5t-23.5 -0.5h-209q-15 0 -23 0.5t-22.5 3.5t-22 9t-14 18.5t-6.5 29.5q0 42 35 60q12 4 88 4l248 1073q7 28 16 44.5t25.5 23.5t29 8.5t40.5 1.5t42 -1.5t29 -9t23.5 -24t15.5 -45.5l248 -1071q76 0 88 -6q35 -14 35 -58zM672 463l-135 643l-136 -643h271z M756 1581q0 -45 -58 -72l-272 -120q-22 -11 -37 -11q-34 0 -50.5 30t-16.5 52q0 25 12.5 37t38.5 23l272 122q10 4 20 7t15 3l4 1q31 0 51.5 -20.5t20.5 -51.5z" />
<glyph unicode="&#xc2;" d="M1018 61q0 -17 -6.5 -29.5t-14 -18.5t-22 -9t-22.5 -3.5t-23 -0.5h-209q-15 0 -23.5 0.5t-22.5 3.5t-21 9t-13 18t-6 30q0 19 5.5 31t13 18.5t24.5 10t31 4t41 0.5l-48 213h-331l-47 -213q27 0 40.5 -0.5t30.5 -4t24.5 -10t13 -18.5t5.5 -31q0 -18 -6 -30t-13 -18t-21 -9 t-22.5 -3.5t-23.5 -0.5h-209q-15 0 -23 0.5t-22.5 3.5t-22 9t-14 18.5t-6.5 29.5q0 42 35 60q12 4 88 4l248 1073q7 28 16 44.5t25.5 23.5t29 8.5t40.5 1.5t42 -1.5t29 -9t23.5 -24t15.5 -45.5l248 -1071q76 0 88 -6q35 -14 35 -58zM672 463l-135 643l-136 -643h271z M801 1477q34 -13 38.5 -46t-19 -56.5t-58.5 -12.5l-223 68l-224 -68q-35 -11 -58.5 12.5t-18 56.5t40.5 46l241 88q19 7 39 0z" />
<glyph unicode="&#xc3;" d="M1018 61q0 -17 -6.5 -29.5t-14 -18.5t-22 -9t-22.5 -3.5t-23 -0.5h-209q-15 0 -23.5 0.5t-22.5 3.5t-21 9t-13 18t-6 30q0 19 5.5 31t13 18.5t24.5 10t31 4t41 0.5l-48 213h-331l-47 -213q27 0 40.5 -0.5t30.5 -4t24.5 -10t13 -18.5t5.5 -31q0 -18 -6 -30t-13 -18t-21 -9 t-22.5 -3.5t-23.5 -0.5h-209q-15 0 -23 0.5t-22.5 3.5t-22 9t-14 18.5t-6.5 29.5q0 42 35 60q12 4 88 4l248 1073q7 28 16 44.5t25.5 23.5t29 8.5t40.5 1.5t42 -1.5t29 -9t23.5 -24t15.5 -45.5l248 -1071q76 0 88 -6q35 -14 35 -58zM672 463l-135 643l-136 -643h271z M897 1538q0 -17 -18.5 -40t-35.5 -37t-46 -36q-90 -67 -160 -67q-32 0 -61.5 13.5t-42 24t-33.5 31.5q-3 2 -8.5 7.5l-8 8t-7.5 7t-7.5 6t-6.5 4.5t-6.5 4.5t-6 3t-7 2t-6.5 0.5q-47 0 -143 -90q-26 -22 -49 -22q-25 0 -44.5 20t-19.5 45q0 17 19 40t35.5 36.5t46.5 36.5 q91 68 159 68q32 0 62 -13.5t42.5 -24.5t33.5 -32q4 -3 11 -10t10 -9.5t8.5 -7.5t9 -7t8 -4.5t8.5 -3.5t8 -1q47 0 143 90q27 23 50 23q24 0 43.5 -20.5t19.5 -45.5z" />
<glyph unicode="&#xc4;" d="M1018 61q0 -17 -6.5 -29.5t-14 -18.5t-22 -9t-22.5 -3.5t-23 -0.5h-209q-15 0 -23.5 0.5t-22.5 3.5t-21 9t-13 18t-6 30q0 19 5.5 31t13 18.5t24.5 10t31 4t41 0.5l-48 213h-331l-47 -213q27 0 40.5 -0.5t30.5 -4t24.5 -10t13 -18.5t5.5 -31q0 -18 -6 -30t-13 -18t-21 -9 t-22.5 -3.5t-23.5 -0.5h-209q-15 0 -23 0.5t-22.5 3.5t-22 9t-14 18.5t-6.5 29.5q0 42 35 60q12 4 88 4l248 1073q7 28 16 44.5t25.5 23.5t29 8.5t40.5 1.5t42 -1.5t29 -9t23.5 -24t15.5 -45.5l248 -1071q76 0 88 -6q35 -14 35 -58zM672 463l-135 643l-136 -643h271z M430 1450q0 -38 -27 -65t-65 -27t-65 27t-27 65q0 39 26.5 65.5t65.5 26.5t65.5 -26.5t26.5 -65.5zM829 1450q0 -38 -27 -65t-65 -27t-65 27t-27 65q0 39 26.5 65.5t65.5 26.5t65.5 -26.5t26.5 -65.5z" />
<glyph unicode="&#xc5;" d="M1018 61q0 -17 -6.5 -29.5t-14 -18.5t-22 -9t-22.5 -3.5t-23 -0.5h-209q-15 0 -23.5 0.5t-22.5 3.5t-21 9t-13 18t-6 30q0 19 5.5 31t13 18.5t24.5 10t31 4t41 0.5l-48 213h-331l-47 -213q27 0 40.5 -0.5t30.5 -4t24.5 -10t13 -18.5t5.5 -31q0 -18 -6 -30t-13 -18t-21 -9 t-22.5 -3.5t-23.5 -0.5h-209q-15 0 -23 0.5t-22.5 3.5t-22 9t-14 18.5t-6.5 29.5q0 42 35 60q12 4 88 4l248 1073q7 28 16 44.5t25.5 23.5t29 8.5t40.5 1.5t42 -1.5t29 -9t23.5 -24t15.5 -45.5l248 -1071q76 0 88 -6q35 -14 35 -58zM672 463l-135 643l-136 -643h271z M635 1423q0 28 -30 49t-66 21t-66.5 -21t-30.5 -49t30 -48.5t67 -20.5t66.5 20.5t29.5 48.5zM737 1423q0 -59 -57 -103t-141 -44t-141.5 44t-57.5 103t57.5 103.5t141.5 44.5t141 -44.5t57 -103.5z" />
<glyph unicode="&#xc6;" d="M1022 84q0 -50 -16 -67t-66 -17h-397q-18 0 -28 1t-25.5 6.5t-23 19.5t-7.5 36q0 28 16 43t30.5 17t35.5 2v250h-228l-51 -250q18 0 28 -0.5t24.5 -4t22.5 -10t13.5 -19t5.5 -30.5q0 -17 -6 -29.5t-13.5 -18.5t-20.5 -9t-21 -3.5t-21 -0.5h-145q-13 0 -21 0.5t-21 3.5 t-20.5 9t-13.5 18.5t-6 29.5q0 23 7 36.5t23 19t29.5 7t38.5 1.5l203 1001q-17 0 -27.5 1.5t-25 7t-22 19.5t-7.5 36q0 17 6 29.5t13.5 18.5t20.5 9t21 3.5t21 0.5h576q51 0 66.5 -17.5t15.5 -66.5v-149q0 -84 -58 -84q-20 0 -32.5 8t-17.5 24t-6 26t-1 26v108h-236v-415 h236q17 0 27.5 -1.5t25 -7t22 -19.5t7.5 -36q0 -17 -6 -29.5t-13.5 -18.5t-20.5 -9t-21 -3.5t-21 -0.5h-236v-461h252v141q0 84 58 84q20 0 32.5 -8t17.5 -24t6 -26t1 -26v-182zM541 500v626h-76l-127 -626h203z" />
<glyph unicode="&#xc7;" d="M991 344q0 -115 -81 -214.5t-210 -135.5v-12q102 -20 152.5 -76.5t50.5 -122.5q0 -43 -17.5 -77t-42.5 -56t-69.5 -37t-79 -22.5t-93 -11.5t-90 -4.5t-89.5 -0.5q-26 0 -45 15.5t-19 48.5q0 19 6 31t14 18.5t27 9.5t32.5 3.5t43.5 0.5q281 0 281 82q0 32 -36 55.5 t-101 26.5q-24 1 -38 8.5t-20 21.5t-7 24.5t-1 31.5v26q-128 6 -237 90.5t-174.5 232.5t-65.5 327q0 182 68 331.5t181 232.5t244 83q150 0 267 -98q12 23 18.5 36.5t8.5 19t3 7.5l4 5q3 5 4 6.5t5 5.5t6 5.5t7 4.5t9 4.5t10 2.5t13 1q17 0 29.5 -6t18.5 -13.5t9 -21 t3.5 -21.5t0.5 -22v-285q0 -21 -1 -31.5t-7 -25t-21.5 -21t-41.5 -6.5q-22 0 -36 5t-21 16.5t-9.5 20t-5.5 26.5q-21 121 -95 190.5t-169 69.5q-68 0 -133 -39t-115.5 -107t-81.5 -166.5t-31 -209.5q0 -224 109.5 -374.5t253.5 -150.5q36 0 75.5 11.5t82 37.5t72 78 t34.5 123q4 60 70 60q13 0 21.5 -1.5t22 -7t20.5 -20.5t7 -39z" />
<glyph unicode="&#xc8;" d="M1028 84q0 -50 -16 -67t-66 -17h-809q-17 0 -27 1t-25.5 6t-23.5 19t-8 35q0 22 7.5 36t22.5 19.5t26 7t28 1.5h62v1001h-62q-16 0 -27 1.5t-26 7t-23 19.5t-8 36q0 21 8 35t23.5 19t25.5 6t27 1h764q51 0 66.5 -17.5t15.5 -66.5v-149q0 -21 -1.5 -31.5t-7.5 -25 t-21.5 -21t-41.5 -6.5q-25 0 -40 6.5t-21 21.5t-7 25.5t-1 30.5v108h-502v-415h268q0 32 0.5 45.5t4 31t11 23.5t21 11t35.5 5q25 0 40.5 -7t21 -21.5t7 -25t1.5 -30.5v-190q0 -20 -1.5 -30.5t-7 -25t-21 -21.5t-40.5 -7q-27 0 -41.5 5.5t-21.5 23t-8 33.5t-1 55h-268v-461 h547v141q0 21 1 31.5t7 25t21.5 21t41.5 6.5q25 0 40.5 -7t21 -21.5t7 -25t1.5 -30.5v-182zM754 1460q0 -22 -17 -52t-51 -30q-15 0 -37 11l-272 120q-58 27 -58 72q0 31 20.5 51.5t51.5 20.5q16 -1 39 -11l272 -122q18 -7 27 -12.5t17 -18t8 -29.5z" />
<glyph unicode="&#xc9;" d="M1028 84q0 -50 -16 -67t-66 -17h-809q-17 0 -27 1t-25.5 6t-23.5 19t-8 35q0 22 7.5 36t22.5 19.5t26 7t28 1.5h62v1001h-62q-16 0 -27 1.5t-26 7t-23 19.5t-8 36q0 21 8 35t23.5 19t25.5 6t27 1h764q51 0 66.5 -17.5t15.5 -66.5v-149q0 -21 -1.5 -31.5t-7.5 -25 t-21.5 -21t-41.5 -6.5q-25 0 -40 6.5t-21 21.5t-7 25.5t-1 30.5v108h-502v-415h268q0 32 0.5 45.5t4 31t11 23.5t21 11t35.5 5q25 0 40.5 -7t21 -21.5t7 -25t1.5 -30.5v-190q0 -20 -1.5 -30.5t-7 -25t-21 -21.5t-40.5 -7q-27 0 -41.5 5.5t-21.5 23t-8 33.5t-1 55h-268v-461 h547v141q0 21 1 31.5t7 25t21.5 21t41.5 6.5q25 0 40.5 -7t21 -21.5t7 -25t1.5 -30.5v-182zM756 1581q0 -45 -58 -72l-272 -120q-22 -11 -37 -11q-34 0 -50.5 30t-16.5 52q0 25 12.5 37t38.5 23l272 122q10 4 20 7t15 3l4 1q31 0 51.5 -20.5t20.5 -51.5z" />
<glyph unicode="&#xca;" d="M1028 84q0 -50 -16 -67t-66 -17h-809q-17 0 -27 1t-25.5 6t-23.5 19t-8 35q0 22 7.5 36t22.5 19.5t26 7t28 1.5h62v1001h-62q-16 0 -27 1.5t-26 7t-23 19.5t-8 36q0 21 8 35t23.5 19t25.5 6t27 1h764q51 0 66.5 -17.5t15.5 -66.5v-149q0 -21 -1.5 -31.5t-7.5 -25 t-21.5 -21t-41.5 -6.5q-25 0 -40 6.5t-21 21.5t-7 25.5t-1 30.5v108h-502v-415h268q0 32 0.5 45.5t4 31t11 23.5t21 11t35.5 5q25 0 40.5 -7t21 -21.5t7 -25t1.5 -30.5v-190q0 -20 -1.5 -30.5t-7 -25t-21 -21.5t-40.5 -7q-27 0 -41.5 5.5t-21.5 23t-8 33.5t-1 55h-268v-461 h547v141q0 21 1 31.5t7 25t21.5 21t41.5 6.5q25 0 40.5 -7t21 -21.5t7 -25t1.5 -30.5v-182zM801 1477q34 -13 38.5 -46t-19 -56.5t-58.5 -12.5l-223 68l-224 -68q-35 -11 -58.5 12.5t-18 56.5t40.5 46l241 88q19 7 39 0z" />
<glyph unicode="&#xcb;" d="M1028 84q0 -50 -16 -67t-66 -17h-809q-17 0 -27 1t-25.5 6t-23.5 19t-8 35q0 22 7.5 36t22.5 19.5t26 7t28 1.5h62v1001h-62q-16 0 -27 1.5t-26 7t-23 19.5t-8 36q0 21 8 35t23.5 19t25.5 6t27 1h764q51 0 66.5 -17.5t15.5 -66.5v-149q0 -21 -1.5 -31.5t-7.5 -25 t-21.5 -21t-41.5 -6.5q-25 0 -40 6.5t-21 21.5t-7 25.5t-1 30.5v108h-502v-415h268q0 32 0.5 45.5t4 31t11 23.5t21 11t35.5 5q25 0 40.5 -7t21 -21.5t7 -25t1.5 -30.5v-190q0 -20 -1.5 -30.5t-7 -25t-21 -21.5t-40.5 -7q-27 0 -41.5 5.5t-21.5 23t-8 33.5t-1 55h-268v-461 h547v141q0 21 1 31.5t7 25t21.5 21t41.5 6.5q25 0 40.5 -7t21 -21.5t7 -25t1.5 -30.5v-182zM430 1450q0 -38 -27 -65t-65 -27t-65 27t-27 65q0 39 26.5 65.5t65.5 26.5t65.5 -26.5t26.5 -65.5zM829 1450q0 -38 -27 -65t-65 -27t-65 27t-27 65q0 39 26.5 65.5t65.5 26.5 t65.5 -26.5t26.5 -65.5z" />
<glyph unicode="&#xcc;" d="M913 61q0 -21 -8 -35t-23.5 -19t-25.5 -6t-27 -1h-583q-17 0 -27 1t-25.5 6.5t-23.5 19.5t-8 36q0 21 8 35t23 19t26 6.5t27 1.5h221v1001h-221q-16 0 -27 1.5t-26 7t-23 19.5t-8 36q0 21 8 35t23.5 19t25.5 6t27 1h583q17 0 27 -1t25.5 -6.5t23.5 -19.5t8 -36 q0 -21 -8 -35t-23 -19t-26 -6.5t-27 -1.5h-221v-1001h221q16 0 27 -1.5t26 -7t23 -19.5t8 -36zM754 1460q0 -22 -17 -52t-51 -30q-15 0 -37 11l-272 120q-58 27 -58 72q0 31 20.5 51.5t51.5 20.5q16 -1 39 -11l272 -122q18 -7 27 -12.5t17 -18t8 -29.5z" />
<glyph unicode="&#xcd;" d="M913 61q0 -21 -8 -35t-23.5 -19t-25.5 -6t-27 -1h-583q-17 0 -27 1t-25.5 6.5t-23.5 19.5t-8 36q0 21 8 35t23 19t26 6.5t27 1.5h221v1001h-221q-16 0 -27 1.5t-26 7t-23 19.5t-8 36q0 21 8 35t23.5 19t25.5 6t27 1h583q17 0 27 -1t25.5 -6.5t23.5 -19.5t8 -36 q0 -21 -8 -35t-23 -19t-26 -6.5t-27 -1.5h-221v-1001h221q16 0 27 -1.5t26 -7t23 -19.5t8 -36zM756 1581q0 -45 -58 -72l-272 -120q-22 -11 -37 -11q-34 0 -50.5 30t-16.5 52q0 25 12.5 37t38.5 23l272 122q10 4 20 7t15 3l4 1q31 0 51.5 -20.5t20.5 -51.5z" />
<glyph unicode="&#xce;" d="M913 61q0 -21 -8 -35t-23.5 -19t-25.5 -6t-27 -1h-583q-17 0 -27 1t-25.5 6.5t-23.5 19.5t-8 36q0 21 8 35t23 19t26 6.5t27 1.5h221v1001h-221q-16 0 -27 1.5t-26 7t-23 19.5t-8 36q0 21 8 35t23.5 19t25.5 6t27 1h583q17 0 27 -1t25.5 -6.5t23.5 -19.5t8 -36 q0 -21 -8 -35t-23 -19t-26 -6.5t-27 -1.5h-221v-1001h221q16 0 27 -1.5t26 -7t23 -19.5t8 -36zM801 1477q34 -13 38.5 -46t-19 -56.5t-58.5 -12.5l-223 68l-224 -68q-35 -11 -58.5 12.5t-18 56.5t40.5 46l241 88q19 7 39 0z" />
<glyph unicode="&#xcf;" d="M913 61q0 -21 -8 -35t-23.5 -19t-25.5 -6t-27 -1h-583q-17 0 -27 1t-25.5 6.5t-23.5 19.5t-8 36q0 21 8 35t23 19t26 6.5t27 1.5h221v1001h-221q-16 0 -27 1.5t-26 7t-23 19.5t-8 36q0 21 8 35t23.5 19t25.5 6t27 1h583q17 0 27 -1t25.5 -6.5t23.5 -19.5t8 -36 q0 -21 -8 -35t-23 -19t-26 -6.5t-27 -1.5h-221v-1001h221q16 0 27 -1.5t26 -7t23 -19.5t8 -36zM430 1450q0 -38 -27 -65t-65 -27t-65 27t-27 65q0 39 26.5 65.5t65.5 26.5t65.5 -26.5t26.5 -65.5zM829 1450q0 -38 -27 -65t-65 -27t-65 27t-27 65q0 39 26.5 65.5t65.5 26.5 t65.5 -26.5t26.5 -65.5z" />
<glyph unicode="&#xd0;" d="M993 616q0 -165 -55 -305t-159 -225.5t-234 -85.5h-422q-17 0 -27 1t-25.5 6t-23.5 19t-8 35q0 22 7.5 36t22.5 19.5t26 7t28 1.5h45v438h-57q-27 0 -45.5 18.5t-18.5 45.5q0 26 19 44.5t45 18.5h57v436h-45q-16 0 -27 1.5t-26 6.5t-23 19t-8 35q0 22 7.5 36t23 19.5 t25.5 6.5t28 1h422q131 0 235.5 -91t158.5 -235t54 -309zM852 616q0 92 -22 180.5t-63.5 163t-109.5 120.5t-151 46h-197v-436h121q26 0 45 -18.5t19 -44.5q0 -27 -18.5 -45.5t-45.5 -18.5h-121v-438h197q66 0 123 28t97 75.5t69 110.5t43 133.5t14 143.5z" />
<glyph unicode="&#xd1;" d="M1016 1188q0 -28 -15.5 -43t-30 -17t-36.5 -2h-51v-1042q0 -55 -18 -69.5t-68 -14.5q-24 0 -37 1.5t-28.5 8.5t-26.5 22.5t-21 41.5l-377 1024h-2v-973h51q17 0 27.5 -1.5t25 -7t22 -19.5t7.5 -36q0 -17 -6 -29.5t-13.5 -18.5t-20.5 -9t-21 -3.5t-21 -0.5h-217 q-17 0 -27.5 1t-25 6.5t-22 19.5t-7.5 36q0 28 15.5 43t30 17t36.5 2h51v1001h-51q-17 0 -27.5 1.5t-25 7t-22 19.5t-7.5 36q0 17 6 29.5t13.5 18.5t20.5 9t21 3.5t21 0.5h140q47 0 70 -13t40 -60l377 -1024h2v972h-51q-22 0 -36.5 2t-30 17t-15.5 43q0 22 7.5 36t22 19.5 t25 6.5t27.5 1h217q18 0 28 -1t24.5 -6.5t22 -19.5t7.5 -36zM897 1538q0 -17 -18.5 -40t-35.5 -37t-46 -36q-90 -67 -160 -67q-32 0 -61.5 13.5t-42 24t-33.5 31.5q-3 2 -8.5 7.5l-8 8t-7.5 7t-7.5 6t-6.5 4.5t-6.5 4.5t-6 3t-7 2t-6.5 0.5q-47 0 -143 -90q-26 -22 -49 -22 q-25 0 -44.5 20t-19.5 45q0 17 19 40t35.5 36.5t46.5 36.5q91 68 159 68q32 0 62 -13.5t42.5 -24.5t33.5 -32q4 -3 11 -10t10 -9.5t8.5 -7.5t9 -7t8 -4.5t8.5 -3.5t8 -1q47 0 143 90q27 23 50 23q24 0 43.5 -20.5t19.5 -45.5z" />
<glyph unicode="&#xd2;" d="M958 625q0 -119 -2 -198.5t-11 -152t-20.5 -115t-36 -79.5t-52 -54.5t-75 -30t-97.5 -15.5t-127 -3q-61 0 -104 2t-85 9t-69.5 16.5t-53.5 30t-41 44t-29 63t-20.5 82t-11.5 107t-6.5 132t-1.5 162.5q0 120 2 199t11 152t20 116t36 80t52.5 54t75.5 29.5t98 15.5t127 3 t127 -3t98 -16t75 -30t52 -54t36 -79.5t20 -116t11 -152.5t2 -198zM817 643q0 283 -24 375q-22 81 -77.5 106t-178.5 25q-130 0 -184 -28.5t-74 -116.5q-23 -94 -23 -361q0 -291 25 -395q13 -54 38 -84t77 -46t141 -16q133 0 186.5 34.5t71.5 123.5q22 106 22 383zM754 1460 q0 -22 -17 -52t-51 -30q-15 0 -37 11l-272 120q-58 27 -58 72q0 31 20.5 51.5t51.5 20.5q16 -1 39 -11l272 -122q18 -7 27 -12.5t17 -18t8 -29.5z" />
<glyph unicode="&#xd3;" d="M958 625q0 -119 -2 -198.5t-11 -152t-20.5 -115t-36 -79.5t-52 -54.5t-75 -30t-97.5 -15.5t-127 -3q-61 0 -104 2t-85 9t-69.5 16.5t-53.5 30t-41 44t-29 63t-20.5 82t-11.5 107t-6.5 132t-1.5 162.5q0 120 2 199t11 152t20 116t36 80t52.5 54t75.5 29.5t98 15.5t127 3 t127 -3t98 -16t75 -30t52 -54t36 -79.5t20 -116t11 -152.5t2 -198zM817 643q0 283 -24 375q-22 81 -77.5 106t-178.5 25q-130 0 -184 -28.5t-74 -116.5q-23 -94 -23 -361q0 -291 25 -395q13 -54 38 -84t77 -46t141 -16q133 0 186.5 34.5t71.5 123.5q22 106 22 383zM756 1581 q0 -45 -58 -72l-272 -120q-22 -11 -37 -11q-34 0 -50.5 30t-16.5 52q0 25 12.5 37t38.5 23l272 122q10 4 20 7t15 3l4 1q31 0 51.5 -20.5t20.5 -51.5z" />
<glyph unicode="&#xd4;" d="M958 625q0 -119 -2 -198.5t-11 -152t-20.5 -115t-36 -79.5t-52 -54.5t-75 -30t-97.5 -15.5t-127 -3q-61 0 -104 2t-85 9t-69.5 16.5t-53.5 30t-41 44t-29 63t-20.5 82t-11.5 107t-6.5 132t-1.5 162.5q0 120 2 199t11 152t20 116t36 80t52.5 54t75.5 29.5t98 15.5t127 3 t127 -3t98 -16t75 -30t52 -54t36 -79.5t20 -116t11 -152.5t2 -198zM817 643q0 283 -24 375q-22 81 -77.5 106t-178.5 25q-130 0 -184 -28.5t-74 -116.5q-23 -94 -23 -361q0 -291 25 -395q13 -54 38 -84t77 -46t141 -16q133 0 186.5 34.5t71.5 123.5q22 106 22 383zM801 1477 q34 -13 38.5 -46t-19 -56.5t-58.5 -12.5l-223 68l-224 -68q-35 -11 -58.5 12.5t-18 56.5t40.5 46l241 88q19 7 39 0z" />
<glyph unicode="&#xd5;" d="M958 625q0 -119 -2 -198.5t-11 -152t-20.5 -115t-36 -79.5t-52 -54.5t-75 -30t-97.5 -15.5t-127 -3q-61 0 -104 2t-85 9t-69.5 16.5t-53.5 30t-41 44t-29 63t-20.5 82t-11.5 107t-6.5 132t-1.5 162.5q0 120 2 199t11 152t20 116t36 80t52.5 54t75.5 29.5t98 15.5t127 3 t127 -3t98 -16t75 -30t52 -54t36 -79.5t20 -116t11 -152.5t2 -198zM817 643q0 283 -24 375q-22 81 -77.5 106t-178.5 25q-130 0 -184 -28.5t-74 -116.5q-23 -94 -23 -361q0 -291 25 -395q13 -54 38 -84t77 -46t141 -16q133 0 186.5 34.5t71.5 123.5q22 106 22 383zM897 1538 q0 -17 -18.5 -40t-35.5 -37t-46 -36q-90 -67 -160 -67q-32 0 -61.5 13.5t-42 24t-33.5 31.5q-3 2 -8.5 7.5l-8 8t-7.5 7t-7.5 6t-6.5 4.5t-6.5 4.5t-6 3t-7 2t-6.5 0.5q-47 0 -143 -90q-26 -22 -49 -22q-25 0 -44.5 20t-19.5 45q0 17 19 40t35.5 36.5t46.5 36.5 q91 68 159 68q32 0 62 -13.5t42.5 -24.5t33.5 -32q4 -3 11 -10t10 -9.5t8.5 -7.5t9 -7t8 -4.5t8.5 -3.5t8 -1q47 0 143 90q27 23 50 23q24 0 43.5 -20.5t19.5 -45.5z" />
<glyph unicode="&#xd6;" d="M958 625q0 -119 -2 -198.5t-11 -152t-20.5 -115t-36 -79.5t-52 -54.5t-75 -30t-97.5 -15.5t-127 -3q-61 0 -104 2t-85 9t-69.5 16.5t-53.5 30t-41 44t-29 63t-20.5 82t-11.5 107t-6.5 132t-1.5 162.5q0 120 2 199t11 152t20 116t36 80t52.5 54t75.5 29.5t98 15.5t127 3 t127 -3t98 -16t75 -30t52 -54t36 -79.5t20 -116t11 -152.5t2 -198zM817 643q0 283 -24 375q-22 81 -77.5 106t-178.5 25q-130 0 -184 -28.5t-74 -116.5q-23 -94 -23 -361q0 -291 25 -395q13 -54 38 -84t77 -46t141 -16q133 0 186.5 34.5t71.5 123.5q22 106 22 383zM430 1450 q0 -38 -27 -65t-65 -27t-65 27t-27 65q0 39 26.5 65.5t65.5 26.5t65.5 -26.5t26.5 -65.5zM829 1450q0 -38 -27 -65t-65 -27t-65 27t-27 65q0 39 26.5 65.5t65.5 26.5t65.5 -26.5t26.5 -65.5z" />
<glyph unicode="&#xd7;" d="M862 301q-48 -48 -116 13l-1.5 1.5l-1.5 1.5l-206 209l-205 -207q-13 -12 -20.5 -17t-26 -15t-37 -6t-35.5 22q-18 17 -22 35.5t6 37t15 26t17 20.5l207 205l-209 207q-33 37 -37 61q-5 31 21 57q48 48 116 -13l3 -3l207 -209l204 207q13 12 20.5 17t26 15t37 6t35.5 -22 q18 -17 22 -35.5t-6 -37t-15 -26t-17 -20.5l-207 -204l209 -207q36 -40 38 -67q2 -28 -22 -52z" />
<glyph unicode="&#xd8;" d="M958 625q0 -119 -2 -198.5t-11 -152t-20.5 -115t-36 -79.5t-52 -54.5t-75 -30t-97.5 -15.5t-127 -3q-78 0 -144 5l-31 -95q-6 -19 -10 -29t-17.5 -21t-33.5 -11q-3 0 -7 0.5t-15.5 4.5t-20 10t-15.5 18t-7 28q-1 17 34 121q-73 32 -102.5 98t-42.5 195q-10 98 -10 324 q0 120 2 199t11 152t20 116t36 80t52.5 54t75.5 29.5t98 15.5t127 3q90 0 143 -4l31 94q6 19 10 29t17.5 21t33.5 11q3 0 7.5 -0.5t15.5 -4.5t20 -10t16 -18t7 -28q0 -17 -35 -121q97 -41 126 -166t29 -452zM844 627q0 120 -5.5 206.5t-12 132.5t-20 77t-22 40.5t-26.5 22.5 l-324 -997q13 -5 23 -5q23 -2 80 -2q133 0 194 25.5t86 112.5q27 98 27 387zM639 1143q-13 4 -23 4q-23 2 -79 2q-134 0 -195 -25.5t-86 -111.5q-27 -98 -27 -387q0 -120 5.5 -206.5t12 -132.5t20 -77.5t22.5 -41t26 -22.5z" />
<glyph unicode="&#xd9;" d="M1065 1190q0 -22 -7.5 -36t-22.5 -19.5t-26 -7t-28 -1.5h-61v-708q0 -186 -113.5 -313.5t-269.5 -127.5t-269.5 127.5t-113.5 313.5v708h-62q-16 0 -27 1.5t-26 7t-23 19.5t-8 36q0 21 8 35t23.5 19t25.5 6t27 1h264q17 0 27 -1t25.5 -6t23.5 -19t8 -35q0 -22 -8 -36 t-23 -19.5t-26 -7t-27 -1.5h-61v-698q0 -79 22.5 -143t58 -103t77.5 -59.5t84 -20.5q41 0 82.5 21t77.5 59.5t58.5 103t22.5 142.5v698h-61q-16 0 -27 1.5t-26 7t-23 19.5t-8 36q0 21 8 35t23.5 19t25.5 6t27 1h264q17 0 27 -1t25.5 -6t23.5 -19t8 -35zM754 1460 q0 -22 -17 -52t-51 -30q-15 0 -37 11l-272 120q-58 27 -58 72q0 31 20.5 51.5t51.5 20.5q16 -1 39 -11l272 -122q18 -7 27 -12.5t17 -18t8 -29.5z" />
<glyph unicode="&#xda;" d="M1065 1190q0 -22 -7.5 -36t-22.5 -19.5t-26 -7t-28 -1.5h-61v-708q0 -186 -113.5 -313.5t-269.5 -127.5t-269.5 127.5t-113.5 313.5v708h-62q-16 0 -27 1.5t-26 7t-23 19.5t-8 36q0 21 8 35t23.5 19t25.5 6t27 1h264q17 0 27 -1t25.5 -6t23.5 -19t8 -35q0 -22 -8 -36 t-23 -19.5t-26 -7t-27 -1.5h-61v-698q0 -79 22.5 -143t58 -103t77.5 -59.5t84 -20.5q41 0 82.5 21t77.5 59.5t58.5 103t22.5 142.5v698h-61q-16 0 -27 1.5t-26 7t-23 19.5t-8 36q0 21 8 35t23.5 19t25.5 6t27 1h264q17 0 27 -1t25.5 -6t23.5 -19t8 -35zM756 1581 q0 -45 -58 -72l-272 -120q-22 -11 -37 -11q-34 0 -50.5 30t-16.5 52q0 25 12.5 37t38.5 23l272 122q10 4 20 7t15 3l4 1q31 0 51.5 -20.5t20.5 -51.5z" />
<glyph unicode="&#xdb;" d="M1065 1190q0 -22 -7.5 -36t-22.5 -19.5t-26 -7t-28 -1.5h-61v-708q0 -186 -113.5 -313.5t-269.5 -127.5t-269.5 127.5t-113.5 313.5v708h-62q-16 0 -27 1.5t-26 7t-23 19.5t-8 36q0 21 8 35t23.5 19t25.5 6t27 1h264q17 0 27 -1t25.5 -6t23.5 -19t8 -35q0 -22 -8 -36 t-23 -19.5t-26 -7t-27 -1.5h-61v-698q0 -79 22.5 -143t58 -103t77.5 -59.5t84 -20.5q41 0 82.5 21t77.5 59.5t58.5 103t22.5 142.5v698h-61q-16 0 -27 1.5t-26 7t-23 19.5t-8 36q0 21 8 35t23.5 19t25.5 6t27 1h264q17 0 27 -1t25.5 -6t23.5 -19t8 -35zM801 1477 q34 -13 38.5 -46t-19 -56.5t-58.5 -12.5l-223 68l-224 -68q-35 -11 -58.5 12.5t-18 56.5t40.5 46l241 88q19 7 39 0z" />
<glyph unicode="&#xdc;" d="M1065 1190q0 -22 -7.5 -36t-22.5 -19.5t-26 -7t-28 -1.5h-61v-708q0 -186 -113.5 -313.5t-269.5 -127.5t-269.5 127.5t-113.5 313.5v708h-62q-16 0 -27 1.5t-26 7t-23 19.5t-8 36q0 21 8 35t23.5 19t25.5 6t27 1h264q17 0 27 -1t25.5 -6t23.5 -19t8 -35q0 -22 -8 -36 t-23 -19.5t-26 -7t-27 -1.5h-61v-698q0 -79 22.5 -143t58 -103t77.5 -59.5t84 -20.5q41 0 82.5 21t77.5 59.5t58.5 103t22.5 142.5v698h-61q-16 0 -27 1.5t-26 7t-23 19.5t-8 36q0 21 8 35t23.5 19t25.5 6t27 1h264q17 0 27 -1t25.5 -6t23.5 -19t8 -35zM430 1450 q0 -38 -27 -65t-65 -27t-65 27t-27 65q0 39 26.5 65.5t65.5 26.5t65.5 -26.5t26.5 -65.5zM829 1450q0 -38 -27 -65t-65 -27t-65 27t-27 65q0 39 26.5 65.5t65.5 26.5t65.5 -26.5t26.5 -65.5z" />
<glyph unicode="&#xdd;" d="M1034 1188q0 -28 -15.5 -43t-30 -17t-36.5 -2h-43l-301 -626v-375h51q17 0 27.5 -1.5t25 -7t22 -19.5t7.5 -36q0 -17 -6 -29.5t-13.5 -18.5t-20.5 -9t-21 -3.5t-21 -0.5h-243q-18 0 -28 1t-24.5 6.5t-22 19.5t-7.5 36q0 28 15.5 43t30 17t36.5 2h51v375l-303 626h-43 q-17 0 -27.5 1.5t-25 7t-22 19.5t-7.5 36q0 17 6 29.5t13.5 18.5t20.5 9t21 3.5t21 0.5h213q13 0 21 -0.5t21 -3.5t20.5 -9t13.5 -18.5t6 -29.5q0 -23 -7 -36.5t-22.5 -19t-28 -7t-36.5 -1.5q0 -1 36.5 -77t68.5 -143.5t66 -147t44 -115.5l215 483q-19 0 -29.5 0.5t-25 4 t-22 10t-13 19t-5.5 30.5q0 17 6 29.5t13.5 18.5t20.5 9t21 3.5t21 0.5h213q18 0 28 -1t24.5 -6.5t22 -19.5t7.5 -36zM756 1581q0 -45 -58 -72l-272 -120q-22 -11 -37 -11q-34 0 -50.5 30t-16.5 52q0 25 12.5 37t38.5 23l272 122q10 4 20 7t15 3l4 1q31 0 51.5 -20.5 t20.5 -51.5z" />
<glyph unicode="&#xde;" d="M963 627q0 -96 -46.5 -181t-136.5 -139.5t-205 -54.5h-256v-127h52q17 0 27.5 -1.5t25 -7t22 -19.5t7.5 -36q0 -17 -6 -29.5t-13.5 -18.5t-20.5 -9t-21 -3.5t-21 -0.5h-244q-13 0 -21 0.5t-21 3.5t-20.5 9t-13.5 18.5t-6 29.5q0 22 7.5 36t22 19.5t25 7t27.5 1.5h51v1001 h-51q-22 0 -36.5 2t-30 17t-15.5 43q0 22 7.5 36t22 19.5t25 6.5t27.5 1h244q17 0 27.5 -1t25 -6.5t22 -19.5t7.5 -36q0 -28 -15.5 -43t-30 -17t-36.5 -2h-52v-125h256q170 0 279 -112.5t109 -261.5zM821 627q0 43 -17 85.5t-50.5 80t-90 61t-126.5 23.5h-218v-500h218 q70 0 126.5 23.5t90 61t50.5 80t17 85.5z" />
<glyph unicode="&#xdf;" d="M1014 358q0 -108 -55 -194.5t-140 -131t-180 -44.5q-98 0 -153.5 45.5t-55.5 107.5q0 39 25 62.5t59 23.5q41 0 66 -32q10 -15 12 -25.5t2 -48.5q16 -8 45 -8q89 0 161 67t72 178q0 39 -8 84t-31 100.5t-58.5 100.5t-97 77.5t-140.5 37.5q-6 1 -14 4t-22 18.5t-14 38.5 q0 32 17.5 47t40.5 17q60 2 108 14.5t77 30t48.5 38.5t27 39t7.5 33q0 38 -65.5 69.5t-157.5 31.5q-84 0 -152 -29q-33 -15 -49 -31.5t-18 -28.5t-2 -38v-928q0 -50 -16 -67t-66 -17h-170q-13 0 -21 0.5t-21 3.5t-20.5 9t-13.5 18.5t-6 29.5q0 22 7.5 36t22 19.5t25 7 t27.5 1.5h110v633h-110q-13 0 -21 0.5t-21 3.5t-20.5 9t-13.5 18.5t-6 29.5q0 22 7.5 36t22 19.5t25 7t27.5 1.5h110v143q0 67 37.5 116.5t97 74.5t117 36t113.5 11q151 0 256.5 -63t105.5 -161q0 -139 -170 -231q70 -49 119 -113t71.5 -128.5t31 -114.5t8.5 -95z" />
<glyph unicode="&#xe0;" d="M1073 63q0 -18 -6 -30.5t-13 -19t-23 -9.5t-27 -3.5t-33 -0.5q-37 0 -62.5 1.5t-59 7.5t-58.5 20.5t-41 36.5q-119 -78 -299 -78q-151 0 -244.5 81.5t-93.5 192.5q0 96 79 164.5t215 103t320 37.5q0 105 -70 157t-192 52q-45 0 -74 -2q-30 -3 -36.5 -6.5t-6.5 -15.5 q-1 -51 -30 -73t-60 -22q-39 0 -65.5 25.5t-26.5 69.5q0 31 12.5 55.5t30 40t47.5 26.5t52.5 16t58 7.5t52 3t44.5 0.5q106 0 187 -28.5t127 -76t68.5 -101.5t22.5 -111v-443q43 -16 123 -16q22 0 36.5 -2t30 -17t15.5 -43zM727 274v172q-219 -6 -346 -57t-127 -127 q0 -62 59 -105.5t152 -43.5q110 0 182 34q29 13 46 27.5t24 33t8.5 31t1.5 35.5zM754 1081q0 -22 -17 -52t-51 -30q-15 0 -37 11l-272 120q-58 27 -58 72q0 31 20.5 51.5t51.5 20.5q16 0 39 -10l272 -123q18 -7 27 -12.5t17 -18t8 -29.5z" />
<glyph unicode="&#xe1;" d="M1073 63q0 -18 -6 -30.5t-13 -19t-23 -9.5t-27 -3.5t-33 -0.5q-37 0 -62.5 1.5t-59 7.5t-58.5 20.5t-41 36.5q-119 -78 -299 -78q-151 0 -244.5 81.5t-93.5 192.5q0 96 79 164.5t215 103t320 37.5q0 105 -70 157t-192 52q-45 0 -74 -2q-30 -3 -36.5 -6.5t-6.5 -15.5 q-1 -51 -30 -73t-60 -22q-39 0 -65.5 25.5t-26.5 69.5q0 31 12.5 55.5t30 40t47.5 26.5t52.5 16t58 7.5t52 3t44.5 0.5q106 0 187 -28.5t127 -76t68.5 -101.5t22.5 -111v-443q43 -16 123 -16q22 0 36.5 -2t30 -17t15.5 -43zM727 274v172q-219 -6 -346 -57t-127 -127 q0 -62 59 -105.5t152 -43.5q110 0 182 34q29 13 46 27.5t24 33t8.5 31t1.5 35.5zM756 1202q0 -45 -58 -72l-272 -120q-22 -11 -37 -11q-34 0 -50.5 30t-16.5 52q0 25 12.5 37t38.5 23l272 123q10 4 20 6.5t15 3.5h4q31 0 51.5 -20.5t20.5 -51.5z" />
<glyph unicode="&#xe2;" d="M1073 63q0 -18 -6 -30.5t-13 -19t-23 -9.5t-27 -3.5t-33 -0.5q-37 0 -62.5 1.5t-59 7.5t-58.5 20.5t-41 36.5q-119 -78 -299 -78q-151 0 -244.5 81.5t-93.5 192.5q0 96 79 164.5t215 103t320 37.5q0 105 -70 157t-192 52q-45 0 -74 -2q-30 -3 -36.5 -6.5t-6.5 -15.5 q-1 -51 -30 -73t-60 -22q-39 0 -65.5 25.5t-26.5 69.5q0 31 12.5 55.5t30 40t47.5 26.5t52.5 16t58 7.5t52 3t44.5 0.5q106 0 187 -28.5t127 -76t68.5 -101.5t22.5 -111v-443q43 -16 123 -16q22 0 36.5 -2t30 -17t15.5 -43zM727 274v172q-219 -6 -346 -57t-127 -127 q0 -62 59 -105.5t152 -43.5q110 0 182 34q29 13 46 27.5t24 33t8.5 31t1.5 35.5zM813 1110q32 -20 29 -54t-30.5 -48t-61.5 2l-211 127l-211 -127q-27 -16 -48.5 -7.5t-34.5 27t-9 43t28 39.5l242 154q30 20 61 0z" />
<glyph unicode="&#xe3;" d="M1073 63q0 -18 -6 -30.5t-13 -19t-23 -9.5t-27 -3.5t-33 -0.5q-37 0 -62.5 1.5t-59 7.5t-58.5 20.5t-41 36.5q-119 -78 -299 -78q-151 0 -244.5 81.5t-93.5 192.5q0 96 79 164.5t215 103t320 37.5q0 105 -70 157t-192 52q-45 0 -74 -2q-30 -3 -36.5 -6.5t-6.5 -15.5 q-1 -51 -30 -73t-60 -22q-39 0 -65.5 25.5t-26.5 69.5q0 31 12.5 55.5t30 40t47.5 26.5t52.5 16t58 7.5t52 3t44.5 0.5q106 0 187 -28.5t127 -76t68.5 -101.5t22.5 -111v-443q43 -16 123 -16q22 0 36.5 -2t30 -17t15.5 -43zM727 274v172q-219 -6 -346 -57t-127 -127 q0 -62 59 -105.5t152 -43.5q110 0 182 34q29 13 46 27.5t24 33t8.5 31t1.5 35.5zM897 1194q0 -17 -18.5 -40t-35.5 -37t-46 -36q-90 -67 -160 -67q-32 0 -61.5 13.5t-42 24t-33.5 31.5q-3 2 -8.5 7.5l-8 8t-7.5 7t-7.5 6t-6.5 4.5t-6.5 4.5t-6 3t-7 2t-6.5 0.5 q-47 0 -143 -90q-26 -22 -49 -22q-25 0 -44.5 20t-19.5 45q0 17 19 40t35.5 36.5t46.5 36.5q91 68 159 68q32 0 62 -13.5t42.5 -24.5t33.5 -32q4 -3 11 -10t10 -9.5t8.5 -7.5t9 -7t8 -4.5t8.5 -3.5t8 -1q47 0 143 90q27 23 50 23q24 0 43.5 -20.5t19.5 -45.5z" />
<glyph unicode="&#xe4;" d="M1073 63q0 -18 -6 -30.5t-13 -19t-23 -9.5t-27 -3.5t-33 -0.5q-37 0 -62.5 1.5t-59 7.5t-58.5 20.5t-41 36.5q-119 -78 -299 -78q-151 0 -244.5 81.5t-93.5 192.5q0 96 79 164.5t215 103t320 37.5q0 105 -70 157t-192 52q-45 0 -74 -2q-30 -3 -36.5 -6.5t-6.5 -15.5 q-1 -51 -30 -73t-60 -22q-39 0 -65.5 25.5t-26.5 69.5q0 31 12.5 55.5t30 40t47.5 26.5t52.5 16t58 7.5t52 3t44.5 0.5q106 0 187 -28.5t127 -76t68.5 -101.5t22.5 -111v-443q43 -16 123 -16q22 0 36.5 -2t30 -17t15.5 -43zM727 274v172q-219 -6 -346 -57t-127 -127 q0 -62 59 -105.5t152 -43.5q110 0 182 34q29 13 46 27.5t24 33t8.5 31t1.5 35.5zM461 1137q0 -38 -27 -65.5t-65 -27.5t-65.5 27.5t-27.5 65.5q0 39 27 65.5t66 26.5t65.5 -26.5t26.5 -65.5zM799 1137q0 -38 -27 -65.5t-65 -27.5t-65.5 27.5t-27.5 65.5q0 39 27 65.5 t66 26.5t65.5 -26.5t26.5 -65.5z" />
<glyph unicode="&#xe5;" d="M1073 63q0 -18 -6 -30.5t-13 -19t-23 -9.5t-27 -3.5t-33 -0.5q-37 0 -62.5 1.5t-59 7.5t-58.5 20.5t-41 36.5q-119 -78 -299 -78q-151 0 -244.5 81.5t-93.5 192.5q0 96 79 164.5t215 103t320 37.5q0 105 -70 157t-192 52q-45 0 -74 -2q-30 -3 -36.5 -6.5t-6.5 -15.5 q-1 -51 -30 -73t-60 -22q-39 0 -65.5 25.5t-26.5 69.5q0 31 12.5 55.5t30 40t47.5 26.5t52.5 16t58 7.5t52 3t44.5 0.5q106 0 187 -28.5t127 -76t68.5 -101.5t22.5 -111v-443q43 -16 123 -16q22 0 36.5 -2t30 -17t15.5 -43zM727 274v172q-219 -6 -346 -57t-127 -127 q0 -62 59 -105.5t152 -43.5q110 0 182 34q29 13 46 27.5t24 33t8.5 31t1.5 35.5zM635 1155q0 28 -30 49t-66 21t-66.5 -21t-30.5 -49t30.5 -49t66.5 -21t66 21t30 49zM737 1155q0 -59 -57 -103t-141 -44t-141.5 44t-57.5 103t57.5 103.5t141.5 44.5t141 -44.5t57 -103.5z " />
<glyph unicode="&#xe6;" d="M1032 223q0 -19 -13 -54.5t-38.5 -77.5t-74.5 -72.5t-109 -30.5q-46 0 -88.5 18t-73.5 46.5t-45 44.5t-25 32q-39 -66 -112 -103.5t-152 -37.5q-104 0 -168.5 78t-64.5 176q0 123 116 193.5t295 72.5v67q0 96 -44 148.5t-120 52.5q-53 0 -53 -8q0 -3 1 -9t1 -9 q-2 -30 -13.5 -50.5t-28 -28.5t-28 -11t-20.5 -3q-39 0 -65.5 25.5t-26.5 69.5q0 61 56 105t184 44q153 0 235 -147q43 75 101.5 111t117.5 36q113 0 184.5 -112.5t71.5 -311.5q0 -51 -14.5 -68.5t-67.5 -17.5h-352q11 -124 74 -201t135 -77q36 0 66.5 29.5t44.5 86.5l2 5 q1 6 2 8.5t4 8t5.5 9t7 8t9.5 7t12 4.5t15 2q24 0 40.5 -17t16.5 -41zM915 514q-7 136 -47 199t-92 63q-64 0 -116.5 -80t-61.5 -182h317zM479 387q-128 -5 -212.5 -42.5t-84.5 -100.5q0 -50 36 -90.5t95 -40.5q67 0 119 43q21 17 31.5 39.5t12 37.5t1.5 41q0 90 2 113z" />
<glyph unicode="&#xe7;" d="M954 223q0 -11 -6.5 -31.5t-25 -50t-45.5 -56.5t-73.5 -51.5t-103.5 -35.5v-16q102 -20 152.5 -76.5t50.5 -122.5q0 -43 -17.5 -77t-42.5 -56t-69.5 -37t-79 -22.5t-93 -11.5t-90 -4.5t-89.5 -0.5q-26 0 -45 15.5t-19 48.5q0 19 6 31t14 18.5t27 9.5t32.5 3.5t43.5 0.5 q281 0 281 82q0 32 -36 55.5t-101 26.5q-24 1 -38 8.5t-20 21.5t-7 24.5t-1 31.5v39q-177 15 -293 145t-116 307q0 57 15 117t51.5 122t89 110.5t135.5 79t184 30.5q30 0 47 -0.5t53 -3t59.5 -7.5t54 -16t48 -26.5t30.5 -40t13 -55.5q0 -43 -27 -69t-65 -26q-39 0 -64 25 t-26 76q0 18 -123 18q-78 0 -140 -25.5t-97 -63.5t-58 -85.5t-31 -86.5t-8 -73q0 -138 94.5 -233.5t226.5 -95.5q43 0 78.5 11t55 24t36.5 34t21.5 30t11.5 24q10 28 25 36.5t43 8.5q71 0 71 -58z" />
<glyph unicode="&#xe8;" d="M950 223q0 -17 -11.5 -44t-40 -60.5t-68.5 -62.5t-105 -48.5t-141 -19.5q-197 0 -334 134t-137 322q0 189 128.5 323t311.5 134q97 0 174 -35t125 -95t73 -137.5t25 -166.5q0 -27 -6 -43.5t-20 -23t-24.5 -8t-31.5 -1.5h-610q24 -127 121.5 -202.5t218.5 -75.5 q25 0 51.5 5t58.5 17t59.5 38t43.5 63q10 28 24.5 36.5t43.5 8.5q71 0 71 -58zM805 514q-6 75 -31 129t-62.5 81.5t-76 39.5t-82.5 12q-107 0 -189 -74.5t-104 -187.5h545zM754 1081q0 -22 -17 -52t-51 -30q-15 0 -37 11l-272 120q-58 27 -58 72q0 31 20.5 51.5t51.5 20.5 q16 0 39 -10l272 -123q18 -7 27 -12.5t17 -18t8 -29.5z" />
<glyph unicode="&#xe9;" d="M950 223q0 -17 -11.5 -44t-40 -60.5t-68.5 -62.5t-105 -48.5t-141 -19.5q-197 0 -334 134t-137 322q0 189 128.5 323t311.5 134q97 0 174 -35t125 -95t73 -137.5t25 -166.5q0 -27 -6 -43.5t-20 -23t-24.5 -8t-31.5 -1.5h-610q24 -127 121.5 -202.5t218.5 -75.5 q25 0 51.5 5t58.5 17t59.5 38t43.5 63q10 28 24.5 36.5t43.5 8.5q71 0 71 -58zM805 514q-6 75 -31 129t-62.5 81.5t-76 39.5t-82.5 12q-107 0 -189 -74.5t-104 -187.5h545zM756 1202q0 -45 -58 -72l-272 -120q-22 -11 -37 -11q-34 0 -50.5 30t-16.5 52q0 25 12.5 37t38.5 23 l272 123q10 4 20 6.5t15 3.5h4q31 0 51.5 -20.5t20.5 -51.5z" />
<glyph unicode="&#xea;" d="M950 223q0 -17 -11.5 -44t-40 -60.5t-68.5 -62.5t-105 -48.5t-141 -19.5q-197 0 -334 134t-137 322q0 189 128.5 323t311.5 134q97 0 174 -35t125 -95t73 -137.5t25 -166.5q0 -27 -6 -43.5t-20 -23t-24.5 -8t-31.5 -1.5h-610q24 -127 121.5 -202.5t218.5 -75.5 q25 0 51.5 5t58.5 17t59.5 38t43.5 63q10 28 24.5 36.5t43.5 8.5q71 0 71 -58zM805 514q-6 75 -31 129t-62.5 81.5t-76 39.5t-82.5 12q-107 0 -189 -74.5t-104 -187.5h545zM813 1110q32 -20 29 -54t-30.5 -48t-61.5 2l-211 127l-211 -127q-27 -16 -48.5 -7.5t-34.5 27t-9 43 t28 39.5l242 154q30 20 61 0z" />
<glyph unicode="&#xeb;" d="M950 223q0 -17 -11.5 -44t-40 -60.5t-68.5 -62.5t-105 -48.5t-141 -19.5q-197 0 -334 134t-137 322q0 189 128.5 323t311.5 134q97 0 174 -35t125 -95t73 -137.5t25 -166.5q0 -27 -6 -43.5t-20 -23t-24.5 -8t-31.5 -1.5h-610q24 -127 121.5 -202.5t218.5 -75.5 q25 0 51.5 5t58.5 17t59.5 38t43.5 63q10 28 24.5 36.5t43.5 8.5q71 0 71 -58zM805 514q-6 75 -31 129t-62.5 81.5t-76 39.5t-82.5 12q-107 0 -189 -74.5t-104 -187.5h545zM461 1137q0 -38 -27 -65.5t-65 -27.5t-65.5 27.5t-27.5 65.5q0 39 27 65.5t66 26.5t65.5 -26.5 t26.5 -65.5zM799 1137q0 -38 -27 -65.5t-65 -27.5t-65.5 27.5t-27.5 65.5q0 39 27 65.5t66 26.5t65.5 -26.5t26.5 -65.5z" />
<glyph unicode="&#xec;" d="M932 61q0 -21 -8 -35t-23.5 -19t-25.5 -6t-27 -1h-604q-17 0 -27 1t-25.5 6t-23.5 19t-8 35q0 22 7.5 36t22.5 19.5t26 7t28 1.5h248v633h-232q-17 0 -27 1t-25.5 6.5t-23.5 19.5t-8 36q0 21 8 35t23 19t26 6.5t27 1.5h291q51 0 66.5 -17.5t15.5 -66.5v-674h215 q16 0 27 -1.5t26 -7t23 -19.5t8 -36zM754 1081q0 -22 -17 -52t-51 -30q-15 0 -37 11l-272 120q-58 27 -58 72q0 31 20.5 51.5t51.5 20.5q16 0 39 -10l272 -123q18 -7 27 -12.5t17 -18t8 -29.5z" />
<glyph unicode="&#xed;" d="M932 61q0 -21 -8 -35t-23.5 -19t-25.5 -6t-27 -1h-604q-17 0 -27 1t-25.5 6t-23.5 19t-8 35q0 22 7.5 36t22.5 19.5t26 7t28 1.5h248v633h-232q-17 0 -27 1t-25.5 6.5t-23.5 19.5t-8 36q0 21 8 35t23 19t26 6.5t27 1.5h291q51 0 66.5 -17.5t15.5 -66.5v-674h215 q16 0 27 -1.5t26 -7t23 -19.5t8 -36zM756 1202q0 -45 -58 -72l-272 -120q-22 -11 -37 -11q-34 0 -50.5 30t-16.5 52q0 25 12.5 37t38.5 23l272 123q10 4 20 6.5t15 3.5h4q31 0 51.5 -20.5t20.5 -51.5z" />
<glyph unicode="&#xee;" d="M932 61q0 -21 -8 -35t-23.5 -19t-25.5 -6t-27 -1h-604q-17 0 -27 1t-25.5 6t-23.5 19t-8 35q0 22 7.5 36t22.5 19.5t26 7t28 1.5h248v633h-232q-17 0 -27 1t-25.5 6.5t-23.5 19.5t-8 36q0 21 8 35t23 19t26 6.5t27 1.5h291q51 0 66.5 -17.5t15.5 -66.5v-674h215 q16 0 27 -1.5t26 -7t23 -19.5t8 -36zM813 1110q32 -20 29 -54t-30.5 -48t-61.5 2l-211 127l-211 -127q-27 -16 -48.5 -7.5t-34.5 27t-9 43t28 39.5l242 154q30 20 61 0z" />
<glyph unicode="&#xef;" d="M932 61q0 -21 -8 -35t-23.5 -19t-25.5 -6t-27 -1h-604q-17 0 -27 1t-25.5 6t-23.5 19t-8 35q0 22 7.5 36t22.5 19.5t26 7t28 1.5h248v633h-232q-17 0 -27 1t-25.5 6.5t-23.5 19.5t-8 36q0 21 8 35t23 19t26 6.5t27 1.5h291q51 0 66.5 -17.5t15.5 -66.5v-674h215 q16 0 27 -1.5t26 -7t23 -19.5t8 -36zM461 1137q0 -38 -27 -65.5t-65 -27.5t-65.5 27.5t-27.5 65.5q0 39 27 65.5t66 26.5t65.5 -26.5t26.5 -65.5zM799 1137q0 -38 -27 -65.5t-65 -27.5t-65.5 27.5t-27.5 65.5q0 39 27 65.5t66 26.5t65.5 -26.5t26.5 -65.5z" />
<glyph unicode="&#xf0;" d="M956 442q0 -192 -125 -323t-294 -131q-171 0 -295.5 131t-124.5 323q0 191 123.5 325t296.5 134q133 0 245 -88q-25 129 -82 213l-36 -39q-20 -20 -48 -20q-26 0 -44.5 18.5t-18.5 44.5q0 23 18 45l35 35q-56 29 -123 29q-26 0 -44.5 18.5t-18.5 44.5t18.5 45t44.5 19 q119 0 211 -64l43 45q19 19 45 19q27 0 45.5 -18.5t18.5 -45.5q0 -26 -17 -43l-45 -45q88 -114 130 -292t42 -380zM815 457q0 137 -82.5 228t-195.5 91q-112 0 -195.5 -91.5t-83.5 -227.5q0 -142 82.5 -243t196.5 -101t196 101t82 243z" />
<glyph unicode="&#xf1;" d="M1049 61q0 -21 -8 -35t-23 -19t-25 -6t-26 -1h-314q-13 0 -20.5 0.5t-21 3.5t-21.5 9t-14.5 18.5t-6.5 29.5q0 22 7.5 36t22.5 19.5t26 7t28 1.5h80v465q0 96 -29 138t-108 42q-42 0 -84.5 -16t-82 -48t-64.5 -89t-25 -130v-362h90q17 0 28 -1.5t26 -7t22.5 -19.5 t7.5 -36q0 -21 -8 -35t-23 -19t-25 -6t-26 -1h-326q-13 0 -20 0.5t-20.5 3.5t-21 9t-13.5 18.5t-6 29.5q0 22 7.5 36t22.5 19.5t26 7t28 1.5h90v633h-93q-13 0 -20 0.5t-20.5 3.5t-21 9t-13.5 18.5t-6 29.5q0 22 7.5 36t22.5 19.5t26 7t28 1.5h149q57 0 69.5 -20t12.5 -77 q41 41 109 75t159 34q126 0 196 -72.5t70 -222.5v-475h91q17 0 28 -1.5t26 -7t22.5 -19.5t7.5 -36zM897 1194q0 -17 -18.5 -40t-35.5 -37t-46 -36q-90 -67 -160 -67q-32 0 -61.5 13.5t-42 24t-33.5 31.5q-3 2 -8.5 7.5l-8 8t-7.5 7t-7.5 6t-6.5 4.5t-6.5 4.5t-6 3t-7 2 t-6.5 0.5q-47 0 -143 -90q-26 -22 -49 -22q-25 0 -44.5 20t-19.5 45q0 17 19 40t35.5 36.5t46.5 36.5q91 68 159 68q32 0 62 -13.5t42.5 -24.5t33.5 -32q4 -3 11 -10t10 -9.5t8.5 -7.5t9 -7t8 -4.5t8.5 -3.5t8 -1q47 0 143 90q27 23 50 23q24 0 43.5 -20.5t19.5 -45.5z" />
<glyph unicode="&#xf2;" d="M956 442q0 -191 -124 -322.5t-295 -131.5t-295.5 131t-124.5 323q0 191 123.5 325t296.5 134q113 0 209.5 -61t153 -166.5t56.5 -231.5zM815 457q0 137 -82.5 228t-195.5 91q-112 0 -195.5 -91.5t-83.5 -227.5q0 -142 82.5 -243t196.5 -101t196 101t82 243zM754 1081 q0 -22 -17 -52t-51 -30q-15 0 -37 11l-272 120q-58 27 -58 72q0 31 20.5 51.5t51.5 20.5q16 0 39 -10l272 -123q18 -7 27 -12.5t17 -18t8 -29.5z" />
<glyph unicode="&#xf3;" d="M956 442q0 -191 -124 -322.5t-295 -131.5t-295.5 131t-124.5 323q0 191 123.5 325t296.5 134q113 0 209.5 -61t153 -166.5t56.5 -231.5zM815 457q0 137 -82.5 228t-195.5 91q-112 0 -195.5 -91.5t-83.5 -227.5q0 -142 82.5 -243t196.5 -101t196 101t82 243zM756 1202 q0 -45 -58 -72l-272 -120q-22 -11 -37 -11q-34 0 -50.5 30t-16.5 52q0 25 12.5 37t38.5 23l272 123q10 4 20 6.5t15 3.5h4q31 0 51.5 -20.5t20.5 -51.5z" />
<glyph unicode="&#xf4;" d="M956 442q0 -191 -124 -322.5t-295 -131.5t-295.5 131t-124.5 323q0 191 123.5 325t296.5 134q113 0 209.5 -61t153 -166.5t56.5 -231.5zM815 457q0 137 -82.5 228t-195.5 91q-112 0 -195.5 -91.5t-83.5 -227.5q0 -142 82.5 -243t196.5 -101t196 101t82 243zM813 1110 q32 -20 29 -54t-30.5 -48t-61.5 2l-211 127l-211 -127q-27 -16 -48.5 -7.5t-34.5 27t-9 43t28 39.5l242 154q30 20 61 0z" />
<glyph unicode="&#xf5;" d="M956 442q0 -191 -124 -322.5t-295 -131.5t-295.5 131t-124.5 323q0 191 123.5 325t296.5 134q113 0 209.5 -61t153 -166.5t56.5 -231.5zM815 457q0 137 -82.5 228t-195.5 91q-112 0 -195.5 -91.5t-83.5 -227.5q0 -142 82.5 -243t196.5 -101t196 101t82 243zM897 1194 q0 -17 -18.5 -40t-35.5 -37t-46 -36q-90 -67 -160 -67q-32 0 -61.5 13.5t-42 24t-33.5 31.5q-3 2 -8.5 7.5l-8 8t-7.5 7t-7.5 6t-6.5 4.5t-6.5 4.5t-6 3t-7 2t-6.5 0.5q-47 0 -143 -90q-26 -22 -49 -22q-25 0 -44.5 20t-19.5 45q0 17 19 40t35.5 36.5t46.5 36.5 q91 68 159 68q32 0 62 -13.5t42.5 -24.5t33.5 -32q4 -3 11 -10t10 -9.5t8.5 -7.5t9 -7t8 -4.5t8.5 -3.5t8 -1q47 0 143 90q27 23 50 23q24 0 43.5 -20.5t19.5 -45.5z" />
<glyph unicode="&#xf6;" d="M956 442q0 -191 -124 -322.5t-295 -131.5t-295.5 131t-124.5 323q0 191 123.5 325t296.5 134q113 0 209.5 -61t153 -166.5t56.5 -231.5zM815 457q0 137 -82.5 228t-195.5 91q-112 0 -195.5 -91.5t-83.5 -227.5q0 -142 82.5 -243t196.5 -101t196 101t82 243zM461 1137 q0 -38 -27 -65.5t-65 -27.5t-65.5 27.5t-27.5 65.5q0 39 27 65.5t66 26.5t65.5 -26.5t26.5 -65.5zM799 1137q0 -38 -27 -65.5t-65 -27.5t-65.5 27.5t-27.5 65.5q0 39 27 65.5t66 26.5t65.5 -26.5t26.5 -65.5z" />
<glyph unicode="&#xf7;" d="M995 627q0 -72 -92 -72h-733q-92 0 -92 72q0 71 104 71h709q104 0 104 -71zM664 1059q0 -50 -36.5 -88.5t-92.5 -38.5q-51 0 -89 37t-38 92q0 50 36.5 88.5t92.5 38.5q51 0 89 -37t38 -92zM664 190q0 -50 -36.5 -88.5t-92.5 -38.5q-51 0 -89 37t-38 93q0 50 36.5 88 t92.5 38q51 0 89 -37t38 -92z" />
<glyph unicode="&#xf8;" d="M985 1108q0 -18 -14 -43l-154 -266q77 -71 120.5 -163.5t43.5 -193.5q0 -189 -130.5 -321.5t-313.5 -132.5q-91 0 -170 35l-158 -271q-19 -39 -55 -39q-22 0 -44 17t-22 45q0 15 35 78l135 233q-166 143 -166 356q0 123 59 229t161.5 168t224.5 62q81 0 174 -37l153 266 q22 39 56 39q22 0 43.5 -16.5t21.5 -44.5zM866 442q0 64 -26.5 131t-85.5 119l-324 -563q52 -16 107 -16q136 0 232.5 96t96.5 233zM647 758q-34 11 -52 14.5t-58 3.5q-135 0 -232.5 -98t-97.5 -236q0 -144 112 -249z" />
<glyph unicode="&#xf9;" d="M1049 63q0 -22 -7.5 -36t-23 -19.5t-25.5 -6.5t-28 -1h-150q-19 0 -29 1t-24 7t-21 20.5t-8 37.5q-104 -78 -244 -78q-290 0 -290 245v525h-93q-13 0 -20 0.5t-20.5 3.5t-21 9t-13.5 18.5t-6 29.5q0 22 7.5 36t22.5 19.5t26 7t28 1.5h149q51 0 66.5 -17.5t15.5 -66.5 v-553q0 -26 1 -40t9.5 -35t24.5 -31t48 -18.5t79 -8.5q24 0 49.5 4t59.5 17t60 34.5t44 61.5t18 92v436h-92q-16 0 -26 1t-25 6t-23 19t-8 35q0 22 7.5 36t22.5 19.5t26 7t28 1.5h150q51 0 66 -17.5t15 -66.5v-674h93q21 0 35.5 -2t30.5 -17t16 -43zM754 1081q0 -22 -17 -52 t-51 -30q-15 0 -37 11l-272 120q-58 27 -58 72q0 31 20.5 51.5t51.5 20.5q16 0 39 -10l272 -123q18 -7 27 -12.5t17 -18t8 -29.5z" />
<glyph unicode="&#xfa;" d="M1049 63q0 -22 -7.5 -36t-23 -19.5t-25.5 -6.5t-28 -1h-150q-19 0 -29 1t-24 7t-21 20.5t-8 37.5q-104 -78 -244 -78q-290 0 -290 245v525h-93q-13 0 -20 0.5t-20.5 3.5t-21 9t-13.5 18.5t-6 29.5q0 22 7.5 36t22.5 19.5t26 7t28 1.5h149q51 0 66.5 -17.5t15.5 -66.5 v-553q0 -26 1 -40t9.5 -35t24.5 -31t48 -18.5t79 -8.5q24 0 49.5 4t59.5 17t60 34.5t44 61.5t18 92v436h-92q-16 0 -26 1t-25 6t-23 19t-8 35q0 22 7.5 36t22.5 19.5t26 7t28 1.5h150q51 0 66 -17.5t15 -66.5v-674h93q21 0 35.5 -2t30.5 -17t16 -43zM756 1202q0 -45 -58 -72 l-272 -120q-22 -11 -37 -11q-34 0 -50.5 30t-16.5 52q0 25 12.5 37t38.5 23l272 123q10 4 20 6.5t15 3.5h4q31 0 51.5 -20.5t20.5 -51.5z" />
<glyph unicode="&#xfb;" d="M1049 63q0 -22 -7.5 -36t-23 -19.5t-25.5 -6.5t-28 -1h-150q-19 0 -29 1t-24 7t-21 20.5t-8 37.5q-104 -78 -244 -78q-290 0 -290 245v525h-93q-13 0 -20 0.5t-20.5 3.5t-21 9t-13.5 18.5t-6 29.5q0 22 7.5 36t22.5 19.5t26 7t28 1.5h149q51 0 66.5 -17.5t15.5 -66.5 v-553q0 -26 1 -40t9.5 -35t24.5 -31t48 -18.5t79 -8.5q24 0 49.5 4t59.5 17t60 34.5t44 61.5t18 92v436h-92q-16 0 -26 1t-25 6t-23 19t-8 35q0 22 7.5 36t22.5 19.5t26 7t28 1.5h150q51 0 66 -17.5t15 -66.5v-674h93q21 0 35.5 -2t30.5 -17t16 -43zM813 1110q32 -20 29 -54 t-30.5 -48t-61.5 2l-211 127l-211 -127q-27 -16 -48.5 -7.5t-34.5 27t-9 43t28 39.5l242 154q30 20 61 0z" />
<glyph unicode="&#xfc;" d="M1049 63q0 -22 -7.5 -36t-23 -19.5t-25.5 -6.5t-28 -1h-150q-19 0 -29 1t-24 7t-21 20.5t-8 37.5q-104 -78 -244 -78q-290 0 -290 245v525h-93q-13 0 -20 0.5t-20.5 3.5t-21 9t-13.5 18.5t-6 29.5q0 22 7.5 36t22.5 19.5t26 7t28 1.5h149q51 0 66.5 -17.5t15.5 -66.5 v-553q0 -26 1 -40t9.5 -35t24.5 -31t48 -18.5t79 -8.5q24 0 49.5 4t59.5 17t60 34.5t44 61.5t18 92v436h-92q-16 0 -26 1t-25 6t-23 19t-8 35q0 22 7.5 36t22.5 19.5t26 7t28 1.5h150q51 0 66 -17.5t15 -66.5v-674h93q21 0 35.5 -2t30.5 -17t16 -43zM461 1137 q0 -38 -27 -65.5t-65 -27.5t-65.5 27.5t-27.5 65.5q0 39 27 65.5t66 26.5t65.5 -26.5t26.5 -65.5zM799 1137q0 -38 -27 -65.5t-65 -27.5t-65.5 27.5t-27.5 65.5q0 39 27 65.5t66 26.5t65.5 -26.5t26.5 -65.5z" />
<glyph unicode="&#xfd;" d="M1024 819q0 -17 -6 -29.5t-13.5 -18.5t-20.5 -9t-21 -3.5t-21 -0.5h-61l-318 -932q-7 -20 -15 -40.5t-36.5 -71t-60 -86.5t-83.5 -65.5t-110 -29.5q-73 0 -121.5 50.5t-48.5 117.5q0 40 24.5 65t65.5 25q38 0 63 -25t25 -63q0 -12 -2.5 -23.5t-5.5 -16.5l-2 -5q19 1 32 4 t38 13.5t49 36t45 65.5q12 23 31.5 78.5t32.5 100.5l14 44q-1 7 -9 27l-290 731h-64q-13 0 -21 0.5t-21 3.5t-20.5 9t-13.5 18.5t-6 29.5q0 22 7.5 36t22 19.5t25 7t27.5 1.5h240q17 0 27.5 -1.5t25 -7t22 -19.5t7.5 -36q0 -17 -6 -29.5t-13.5 -18.5t-20.5 -9t-21 -3.5 t-21 -0.5h-51l190 -492q4 -12 14 -37.5t17.5 -46t11.5 -37.5h2q17 74 53 177l148 436h-58q-17 0 -27 1t-25 6.5t-22 19.5t-7 36t7.5 35.5t22 18.5t25 6.5t26.5 1.5h240q17 0 27.5 -1.5t25 -7t22 -19.5t7.5 -36zM756 1202q0 -45 -58 -72l-272 -120q-22 -11 -37 -11 q-34 0 -50.5 30t-16.5 52q0 25 12.5 37t38.5 23l272 123q10 4 20 6.5t15 3.5h4q31 0 51.5 -20.5t20.5 -51.5z" />
<glyph unicode="&#xfe;" d="M999 442q0 -95 -34.5 -180t-92 -144.5t-134.5 -94.5t-160 -35q-136 0 -238 104v-422h90q18 0 28 -1t25.5 -6.5t23 -19.5t7.5 -36q0 -28 -16 -43t-30.5 -17t-35.5 -2h-326q-15 0 -25.5 1.5t-25 6.5t-22.5 19t-8 35q0 22 7.5 36t23 19.5t25.5 6.5t28 1h90v1456h-93 q-15 0 -25.5 1.5t-25 6.5t-22.5 19t-8 35q0 22 7.5 36t23 19.5t25.5 6.5t28 1h149q51 0 66.5 -17.5t15.5 -66.5v-372q111 100 260 100q107 0 199 -60t146 -164.5t54 -228.5zM858 442q0 135 -78.5 231.5t-191.5 96.5q-97 0 -172.5 -69.5t-75.5 -159.5v-150q0 -39 14 -85 t41 -90.5t73 -73.5t103 -29q112 0 199.5 93.5t87.5 235.5z" />
<glyph unicode="&#xff;" d="M1024 819q0 -17 -6 -29.5t-13.5 -18.5t-20.5 -9t-21 -3.5t-21 -0.5h-61l-318 -932q-7 -20 -15 -40.5t-36.5 -71t-60 -86.5t-83.5 -65.5t-110 -29.5q-73 0 -121.5 50.5t-48.5 117.5q0 40 24.5 65t65.5 25q38 0 63 -25t25 -63q0 -12 -2.5 -23.5t-5.5 -16.5l-2 -5q19 1 32 4 t38 13.5t49 36t45 65.5q12 23 31.5 78.5t32.5 100.5l14 44q-1 7 -9 27l-290 731h-64q-13 0 -21 0.5t-21 3.5t-20.5 9t-13.5 18.5t-6 29.5q0 22 7.5 36t22 19.5t25 7t27.5 1.5h240q17 0 27.5 -1.5t25 -7t22 -19.5t7.5 -36q0 -17 -6 -29.5t-13.5 -18.5t-20.5 -9t-21 -3.5 t-21 -0.5h-51l190 -492q4 -12 14 -37.5t17.5 -46t11.5 -37.5h2q17 74 53 177l148 436h-58q-17 0 -27 1t-25 6.5t-22 19.5t-7 36t7.5 35.5t22 18.5t25 6.5t26.5 1.5h240q17 0 27.5 -1.5t25 -7t22 -19.5t7.5 -36zM461 1137q0 -38 -27 -65.5t-65 -27.5t-65.5 27.5t-27.5 65.5 q0 39 27 65.5t66 26.5t65.5 -26.5t26.5 -65.5zM799 1137q0 -38 -27 -65.5t-65 -27.5t-65.5 27.5t-27.5 65.5q0 39 27 65.5t66 26.5t65.5 -26.5t26.5 -65.5z" />
<glyph unicode="&#x152;" d="M1028 84q0 -50 -16 -67t-66 -17h-338q-47 0 -88 -8q-75 -15 -125 -15q-110 0 -174 22.5t-91 60.5t-42 106q-14 60 -20.5 145.5t-7.5 145t-1 170.5q0 197 6.5 294.5t24.5 178.5q23 98 91.5 136t213.5 38q58 0 117 -12q54 -11 96 -11h324q51 0 66.5 -17.5t15.5 -66.5v-149 q0 -84 -58 -84q-20 0 -32.5 8t-17.5 24t-6 26t-1 26v108h-248v-415h250q17 0 27.5 -1.5t25 -7t22 -19.5t7.5 -36q0 -17 -6 -29.5t-13.5 -18.5t-20.5 -9t-21 -3.5t-21 -0.5h-250v-461h262v141q0 84 58 84q20 0 32.5 -8t17.5 -24t6 -26t1 -26v-182zM537 352v547q0 109 -14 163 t-40.5 70.5t-79.5 16.5q-161 0 -195 -91t-34 -415q0 -98 0.5 -144t3.5 -114.5t8.5 -97t17 -69.5t28 -56t41.5 -32.5t58 -22.5t77 -5q51 0 77 18.5t39 72.5t13 159z" />
<glyph unicode="&#x153;" d="M1034 221q0 -18 -11.5 -52.5t-35 -77t-69 -73t-103.5 -30.5q-83 0 -144 55t-96 127q-37 -73 -97 -127.5t-142 -54.5q-123 0 -210 130.5t-87 325.5t87 326t210 131q45 0 86 -18.5t70.5 -49.5t47.5 -56.5t33 -53.5q37 77 93 127.5t129 50.5q107 0 173 -112t66 -312 q0 -50 -15 -68t-67 -18h-317q10 -117 65.5 -197.5t122.5 -80.5q34 0 59.5 30.5t37.5 85.5q10 52 57 52q23 0 40 -16.5t17 -43.5zM918 514q-7 140 -43 201t-80 61q-53 0 -100.5 -77t-57.5 -185h281zM518 457q0 138 -56 228.5t-126 90.5t-126 -89.5t-56 -229.5 q0 -143 56 -243.5t126 -100.5t126 100.5t56 243.5z" />
<glyph unicode="&#x178;" d="M1034 1188q0 -28 -15.5 -43t-30 -17t-36.5 -2h-43l-301 -626v-375h51q17 0 27.5 -1.5t25 -7t22 -19.5t7.5 -36q0 -17 -6 -29.5t-13.5 -18.5t-20.5 -9t-21 -3.5t-21 -0.5h-243q-18 0 -28 1t-24.5 6.5t-22 19.5t-7.5 36q0 28 15.5 43t30 17t36.5 2h51v375l-303 626h-43 q-17 0 -27.5 1.5t-25 7t-22 19.5t-7.5 36q0 17 6 29.5t13.5 18.5t20.5 9t21 3.5t21 0.5h213q13 0 21 -0.5t21 -3.5t20.5 -9t13.5 -18.5t6 -29.5q0 -23 -7 -36.5t-22.5 -19t-28 -7t-36.5 -1.5q0 -1 36.5 -77t68.5 -143.5t66 -147t44 -115.5l215 483q-19 0 -29.5 0.5t-25 4 t-22 10t-13 19t-5.5 30.5q0 17 6 29.5t13.5 18.5t20.5 9t21 3.5t21 0.5h213q18 0 28 -1t24.5 -6.5t22 -19.5t7.5 -36zM430 1450q0 -38 -27 -65t-65 -27t-65 27t-27 65q0 39 26.5 65.5t65.5 26.5t65.5 -26.5t26.5 -65.5zM829 1450q0 -38 -27 -65t-65 -27t-65 27t-27 65 q0 39 26.5 65.5t65.5 26.5t65.5 -26.5t26.5 -65.5z" />
<glyph unicode="&#x2c6;" d="M813 1110q32 -20 29 -54t-30.5 -48t-61.5 2l-211 127l-211 -127q-27 -16 -48.5 -7.5t-34.5 27t-9 43t28 39.5l242 154q30 20 61 0z" />
<glyph unicode="&#x2dc;" d="M897 1194q0 -17 -18.5 -40t-35.5 -37t-46 -36q-90 -67 -160 -67q-32 0 -61.5 13.5t-42 24t-33.5 31.5q-3 2 -8.5 7.5l-8 8t-7.5 7t-7.5 6t-6.5 4.5t-6.5 4.5t-6 3t-7 2t-6.5 0.5q-47 0 -143 -90q-26 -22 -49 -22q-25 0 -44.5 20t-19.5 45q0 17 19 40t35.5 36.5t46.5 36.5 q91 68 159 68q32 0 62 -13.5t42.5 -24.5t33.5 -32q4 -3 11 -10t10 -9.5t8.5 -7.5t9 -7t8 -4.5t8.5 -3.5t8 -1q47 0 143 90q27 23 50 23q24 0 43.5 -20.5t19.5 -45.5z" />
<glyph unicode="&#x2000;" horiz-adv-x="826" />
<glyph unicode="&#x2001;" horiz-adv-x="1653" />
<glyph unicode="&#x2002;" horiz-adv-x="826" />
<glyph unicode="&#x2003;" horiz-adv-x="1653" />
<glyph unicode="&#x2004;" horiz-adv-x="551" />
<glyph unicode="&#x2005;" horiz-adv-x="413" />
<glyph unicode="&#x2006;" horiz-adv-x="275" />
<glyph unicode="&#x2007;" horiz-adv-x="275" />
<glyph unicode="&#x2008;" horiz-adv-x="206" />
<glyph unicode="&#x2009;" horiz-adv-x="330" />
<glyph unicode="&#x200a;" horiz-adv-x="91" />
<glyph unicode="&#x2010;" d="M958 627q0 -72 -96 -72h-651q-96 0 -96 72q0 71 96 71h651q96 0 96 -71z" />
<glyph unicode="&#x2011;" d="M958 627q0 -72 -96 -72h-651q-96 0 -96 72q0 71 96 71h651q96 0 96 -71z" />
<glyph unicode="&#x2012;" d="M958 627q0 -72 -96 -72h-651q-96 0 -96 72q0 71 96 71h651q96 0 96 -71z" />
<glyph unicode="&#x2013;" d="M958 627q0 -72 -96 -72h-651q-96 0 -96 72q0 71 96 71h651q96 0 96 -71z" />
<glyph unicode="&#x2014;" d="M958 627q0 -72 -96 -72h-651q-96 0 -96 72q0 71 96 71h651q96 0 96 -71z" />
<glyph unicode="&#x2018;" d="M705 1329q0 -15 -7.5 -27t-11.5 -14.5t-18 -11.5q-56 -33 -93.5 -76.5t-52 -87t-18.5 -68.5t-4 -49q0 -30 8 -30q15 2 29 2q45 0 73.5 -30.5t28.5 -72.5q0 -40 -28 -71t-76 -31q-68 0 -114 60.5t-46 172.5q0 73 23 140t56.5 112.5t71.5 80t68.5 51t46.5 16.5 q23 0 43.5 -19.5t20.5 -46.5z" />
<glyph unicode="&#x2019;" d="M698 1018q0 -73 -23 -140t-56.5 -112.5t-71.5 -80t-68.5 -51t-46.5 -16.5q-23 0 -43 19.5t-20 46.5q0 15 7.5 27t11.5 14.5t18 11.5q56 33 93.5 76t51.5 87t18 69t4 49q0 31 -8 31q-14 -2 -28 -2q-45 0 -74 30t-29 72q0 40 28.5 71t76.5 31q68 0 113.5 -60t45.5 -173z " />
<glyph unicode="&#x201a;" d="M629 76l-27 -418q-4 -72 -63 -72q-38 0 -51 21t-15 53l-27 416q-4 60 25.5 86t67.5 26q13 0 27 -4.5t30 -15t25.5 -34.5t7.5 -58z" />
<glyph unicode="&#x201c;" d="M809 1161l-27 -418q-4 -71 -63 -71q-38 0 -51 20.5t-15 52.5l-26 416q-4 60 25 86.5t67 26.5q13 0 27 -4.5t30 -15.5t25.5 -35t7.5 -58zM446 1161l-26 -418q-4 -71 -64 -71q-26 0 -41.5 13t-19 26.5t-4.5 33.5l-27 416q-4 60 25 86.5t67 26.5q13 0 27 -4.5t30 -15.5 t25.5 -35t7.5 -58z" />
<glyph unicode="&#x201d;" d="M809 1161l-27 -418q-4 -71 -63 -71q-38 0 -51 20.5t-15 52.5l-26 416q-4 60 25 86.5t67 26.5q13 0 27 -4.5t30 -15.5t25.5 -35t7.5 -58zM446 1161l-26 -418q-4 -71 -64 -71q-26 0 -41.5 13t-19 26.5t-4.5 33.5l-27 416q-4 60 25 86.5t67 26.5q13 0 27 -4.5t30 -15.5 t25.5 -35t7.5 -58z" />
<glyph unicode="&#x201e;" d="M809 76l-27 -418q-4 -72 -63 -72q-38 0 -51 21t-15 53l-26 416q-4 60 25 86t67 26q13 0 27 -4.5t30 -15t25.5 -34.5t7.5 -58zM446 76l-26 -418q-4 -72 -64 -72q-20 0 -33.5 6.5t-20 19t-8.5 23t-3 25.5l-27 416q-4 60 25 86t67 26q13 0 27 -4.5t30 -15t25.5 -34.5 t7.5 -58z" />
<glyph unicode="&#x2022;" d="M821 477q0 -111 -80 -195.5t-204 -84.5q-113 0 -197 81t-84 203q0 111 80.5 196t204.5 85q112 0 196 -81t84 -204z" />
<glyph unicode="&#x2026;" d="M307 127q0 -50 -36.5 -88.5t-92.5 -38.5q-51 0 -89 37t-38 92q0 50 36.5 88.5t92.5 38.5q51 0 89 -37t38 -92zM666 127q0 -50 -36.5 -88.5t-92.5 -38.5q-51 0 -89 37t-38 92q0 50 36.5 88.5t92.5 38.5q51 0 89 -37t38 -92zM1024 127q0 -50 -36.5 -88.5t-92.5 -38.5 q-51 0 -89 37t-38 92q0 50 36.5 88.5t92.5 38.5q51 0 89 -37t38 -92z" />
<glyph unicode="&#x202f;" horiz-adv-x="330" />
<glyph unicode="&#x2039;" d="M813 231q0 -31 -13 -48t-32 -17q-14 0 -37 18l-446 385q-23 23 -23 58q0 16 6 29.5t9.5 17.5t13.5 14l440 381q23 18 37 18q19 0 32 -17t13 -48q0 -34 -31 -61l-385 -334l385 -334q31 -27 31 -62z" />
<glyph unicode="&#x203a;" d="M813 627q0 -36 -22 -58l-447 -385q-23 -18 -37 -18q-19 0 -32 17t-13 48q0 35 31 62l385 334l-385 334q-31 27 -31 61q0 31 13 48t32 17q14 0 37 -18l440 -381q10 -10 13.5 -14t9.5 -17.5t6 -29.5z" />
<glyph unicode="&#x205f;" horiz-adv-x="413" />
<glyph unicode="&#x20ac;" d="M956 37q0 -25 -17 -42.5t-42 -17.5h-8q-29 0 -45 23l-21 25q-79 -48 -176 -48q-90 0 -167 55.5t-132 145.5q-67 114 -92 254h-82q-23 0 -37 17.5t-8 39.5l8 33q3 15 15.5 26t29.5 11h58q-2 23 -2 68q0 44 2 67h-66q-23 0 -37 18t-8 40l8 32q3 15 15.5 26t29.5 11h74 q26 142 92 252q55 90 132 145.5t167 55.5q99 0 176 -47l21 26q18 21 45 21h8q25 0 42 -17.5t17 -42.5v-194q0 -25 -17 -42t-42 -17h-25q-23 0 -39.5 14.5t-19.5 36.5q-7 58 -52 96.5t-104 38.5q-103 0 -186 -139q-47 -84 -70 -187h365q23 0 37 -18t8 -41l-8 -33 q-3 -15 -15.5 -25t-29.5 -10h-375q-2 -23 -2 -67q0 -45 2 -68h319q23 0 37.5 -18t8.5 -41l-9 -33q-3 -15 -15.5 -25t-29.5 -10h-293q22 -103 70 -186q83 -142 186 -142q59 0 104 39t52 97q3 22 19.5 36.5t39.5 14.5h25q25 0 42 -17.5t17 -42.5v-194z" />
<glyph unicode="&#x25fc;" horiz-adv-x="880" d="M0 881h881v-881h-881v881z" />
</font>
</defs>
</svg>
